<?xml version="1.0" standalone="no"?>
<!DOCTYPE svg PUBLIC "-//W3C//DTD SVG 1.1//EN" "http://www.w3.org/Graphics/SVG/1.1/DTD/svg11.dtd" >
<svg xmlns="http://www.w3.org/2000/svg">
<metadata></metadata>
<defs>
<font id="lmbuff" horiz-adv-x="819" >
<font-face units-per-em="2048" ascent="1597" descent="-451" />
<missing-glyph horiz-adv-x="430" />
<glyph unicode="&#xfb01;" horiz-adv-x="886" d="M-6 842q1 57 7.5 88.5t13.5 39t18 7.5h22q25 0 25 31v102q0 163 108 254q93 82 236 82h172q41 0 39 -148q-1 -59 -7.5 -92t-13.5 -41t-18 -8h-141q-64 0 -64 -78v-71q0 -31 31 -31h360q43 0 43 -43v-905q0 -11 -8 -18.5t-44 -14t-101 -6.5q-68 0 -105.5 6.5t-46 14 t-8.5 18.5v639q0 30 -31 30h-55q-31 0 -31 -30v-639q0 -11 -8.5 -18.5t-46.5 -14t-107 -6.5q-65 0 -101 6.5t-44 14t-8 18.5v639q0 30 -31 30h-16q-41 0 -39 144z" />
<glyph unicode="&#xfb02;" horiz-adv-x="952" d="M-6 848q1 55 7.5 85.5t13.5 38t18 7.5h22q25 0 25 33v98q0 158 108 252q48 41 126 62.5t167 21.5q88 0 167 -22.5t124 -61.5q109 -95 109 -252v-1081q0 -39 -152 -39q-68 0 -105.5 6.5t-46 14t-8.5 18.5v1050q0 40 -27 63t-63 23q-37 0 -64.5 -23t-27.5 -63v-67 q0 -33 31 -33h35q11 0 18 -7.5t13.5 -37.5t7.5 -84q2 -150 -39 -150h-31q-31 0 -31 -30v-641q0 -11 -8 -18.5t-43 -14t-98 -6.5q-69 0 -107 6.5t-46.5 14t-8.5 18.5v641q0 30 -31 30h-16q-41 0 -39 148z" />
<glyph horiz-adv-x="0" />
<glyph horiz-adv-x="0" />
<glyph horiz-adv-x="682" />
<glyph unicode="&#xd;" horiz-adv-x="430" />
<glyph unicode=" "  horiz-adv-x="430" />
<glyph unicode="&#x09;" horiz-adv-x="430" />
<glyph unicode="&#xa0;" horiz-adv-x="430" />
<glyph unicode="!" horiz-adv-x="503" d="M123 150q0 89 47 133q44 41 111 41q66 0 110 -41q49 -45 49 -133q0 -85 -49 -130q-43 -40 -110 -40q-68 0 -111 40q-47 44 -47 130zM123 1401q0 11 8.5 18.5t46.5 14t107 6.5q67 0 104 -6.5t45 -14t8 -18.5l-20 -932q0 -39 -141 -39q-140 0 -140 39z" />
<glyph unicode="&#x22;" horiz-adv-x="608" d="M61 1413q0 41 111 39q104 -2 104 -39l-10 -297q0 -39 -98 -39q-96 0 -96 39zM332 1413q0 41 110 39q105 -2 105 -39l-10 -297q0 -39 -99 -39q-96 0 -96 39z" />
<glyph unicode="#" horiz-adv-x="970" d="M6 774q0 70 37 70h66q25 0 32 33l45 206q7 33 -32 33h-64q-37 0 -37 66q0 67 37 67h103q25 0 32 33l27 129q3 13 7.5 19.5t32.5 14t79 7.5q30 0 51 -2.5t31.5 -6.5t16.5 -9.5t5.5 -11t-0.5 -11.5l-26 -129q-7 -33 32 -33h109q14 0 28 10t15 23l29 129q1 12 6 19 t33.5 14.5t80.5 7.5q47 0 72 -7t29.5 -15t1.5 -19l-27 -129q-3 -14 5.5 -23.5t27.5 -9.5h37q40 0 37 -67q-3 -66 -37 -66h-76q-26 0 -33 -33l-45 -206q-3 -14 5.5 -23.5t27.5 -9.5h74q37 0 37 -68q0 -65 -37 -65h-113q-26 0 -33 -33l-35 -170q-3 -12 -9 -19t-31 -13.5 t-70 -6.5q-49 0 -76.5 6.5t-33 14t-3.5 18.5l35 170q3 14 -5.5 23.5t-27.5 9.5h-123q-25 0 -32 -33l-33 -170q-3 -11 -9.5 -18.5t-33.5 -14t-74 -6.5t-72.5 6.5t-30.5 14t-3 18.5l34 170q7 33 -32 33h-27q-37 0 -37 63zM365 877q-7 -33 32 -33h123q26 0 33 33l43 206 q7 33 -33 33h-123q-25 0 -32 -33z" />
<glyph unicode="$" horiz-adv-x="864" d="M72 1040q0 124 42.5 204t147.5 124q35 14 35 45v129q0 39 141 39q133 0 133 -39v-129q0 -19 5.5 -25.5t27.5 -15.5q176 -73 176 -287v-73q0 -39 -143 -37q-59 1 -91.5 7t-40 12t-7.5 16v55q0 80 -60 80q-31 0 -46 -26t-15 -64q0 -33 9.5 -60.5t32.5 -53t38 -38.5t50 -39 q2 -2 3 -2.5t3 -2t3.5 -3t3.5 -2.5q7 -5 36 -26.5t39 -29.5t36 -30t37 -35t32.5 -38t31.5 -45t24 -50.5t20.5 -60.5t11.5 -68t5 -80q0 -247 -183 -328q-5 -2 -13 -5.5t-10 -4.5t-6.5 -4t-5.5 -5t-2.5 -6.5t-1.5 -9v-12.5v-137q0 -39 -135 -39q-139 0 -139 39v133q0 8 -2 15 t-5 11t-8 7.5t-8 4.5t-8 3t-6 2q-180 73 -180 289v117q0 35 137 37q145 2 145 -35v-98q0 -78 60 -78q31 0 44 25.5t13 60.5q0 52 -10 90t-36.5 72.5t-53 58.5t-78.5 65q-47 36 -69 54.5t-59 57.5t-54.5 72.5t-32 85.5t-14.5 111z" />
<glyph unicode="%" horiz-adv-x="1024" d="M51 958v211q0 86 58 123t145 37q39 0 73.5 -8.5t64.5 -26t47.5 -50t17.5 -75.5v-213q0 -84 -58.5 -120.5t-144.5 -36.5q-85 0 -144 38t-59 121zM130 112q-1 8 1 17l578 1184q6 12 10 17t25.5 12t60.5 8q27 1 45 -1.5t26 -6.5t11 -10t2 -10.5t-4 -10.5l-576 -1182 q0 -1 -2.5 -5.5t-3.5 -6l-4 -6t-6 -6t-8.5 -5t-12 -5t-15.5 -3t-20.5 -2t-25.5 -0.5q-38 1 -59 7.5t-22 14.5zM217 993q0 -20 1 -30.5t10 -21.5t26 -11q14 0 22 4.5t11 16t3.5 17.5t0.5 23v148q0 16 -0.5 22t-3.5 17.5t-11 16.5t-22 5q-17 0 -26 -10.5t-10 -20.5t-1 -30 v-146zM567 293v211q0 86 58 123t145 37q39 0 73.5 -8.5t64.5 -26t47.5 -50t17.5 -75.5v-213q0 -58 -31.5 -95t-74.5 -50t-97 -13q-39 0 -73.5 8.5t-64.5 26t-47.5 50t-17.5 75.5zM733 328q0 -20 1 -30.5t10 -22t26 -11.5q11 0 18.5 4.5t11 8.5t5.5 15.5t2 15.5v18v147 q0 16 -0.5 22t-3.5 18t-11 17t-22 5q-17 0 -26 -11t-10 -21t-1 -30v-145z" />
<glyph unicode="&#x26;" horiz-adv-x="1081" d="M66 317v54q0 94 33 162.5t94 138.5q22 25 23 38t-9 29q-58 98 -87 181.5t-26 175.5q6 165 99.5 257.5t255.5 92.5q151 0 250.5 -87.5t99.5 -232.5q0 -116 -59.5 -204t-186.5 -195q-29 -23 -8 -53l119 -172q12 -23 24 -23t12 41v109q0 9 4.5 15t34 13t84.5 7 q38 0 64.5 -3.5t39 -7t19.5 -9.5t7.5 -8.5t0.5 -6.5v-117q0 -157 -73 -270q-16 -22 0 -43l116 -160q22 -31 -28 -42q-33 -7 -99 -7q-62 0 -95.5 3.5t-42.5 7.5t-15 13l-21 27q-12 15 -20 16.5t-29 -10.5q-97 -67 -203 -67q-168 0 -273 92t-105 245zM354 348q0 -54 25 -89.5 t65 -35.5q39 0 74 23q22 16 8 39l-123 172q-16 22 -30 -6q-7 -13 -13 -45.5t-6 -57.5zM383 1087q0 -82 27 -147q5 -11 13.5 -10.5t16.5 10.5q22 26 44 79.5t22 104.5q0 38 -15.5 62t-46.5 24q-61 0 -61 -123z" />
<glyph unicode="'" horiz-adv-x="348" d="M61 1413q0 41 115 39q111 -2 111 -39l-11 -297q0 -39 -104 -39q-100 0 -100 39z" />
<glyph unicode="(" horiz-adv-x="567" d="M82 -29v1297q0 51 31.5 100t85.5 78q71 38 145 51.5t172 13.5q26 0 36.5 -22t10.5 -100q0 -72 -11 -93.5t-40 -21.5q-41 0 -65 -3t-49.5 -14t-37.5 -36t-12 -66v-1071q0 -41 12 -66t37.5 -36t49.5 -14t65 -3q30 0 40.5 -23t10.5 -104q0 -69 -10.5 -89.5t-36.5 -20.5 q-96 0 -170.5 14t-146.5 53q-54 29 -85.5 77t-31.5 99z" />
<glyph unicode=")" horiz-adv-x="567" d="M4 -162q0 81 10.5 104t40.5 23q41 0 65 3t49.5 14t37.5 36t12 66v1071q0 41 -12 66t-37.5 36t-49.5 14t-65 3q-29 0 -40 21.5t-11 93.5q0 78 10.5 100t36.5 22q99 0 173 -13.5t145 -51.5q54 -28 85 -77.5t31 -100.5v-1297q0 -51 -31 -99t-85 -77q-124 -67 -318 -67 q-26 0 -36.5 20.5t-10.5 89.5z" />
<glyph unicode="*" horiz-adv-x="720" d="M119 1042q-42 68 2 91l100 51q7 3 8.5 9t-6.5 11l-96 47q-43 22 -4 88q19 33 43 44.5t39 2.5l104 -57q5 -4 11 -1t6 11l-7 105q-2 17 19 31t63 14q43 0 63.5 -13.5t20.5 -31.5l-4 -107q0 -9 7.5 -10.5t11.5 2.5l102 57q41 23 82 -43q20 -38 17.5 -60t-21.5 -32l-100 -49 q-7 -3 -7.5 -9t7.5 -9l102 -49q17 -8 19 -30t-17 -61q-37 -69 -80 -45l-106 58q-17 6 -17 -13l4 -102q0 -18 -20 -31.5t-62 -13.5q-43 0 -63.5 13.5t-20.5 31.5l5 111q0 5 -5 8.5t-12 -0.5l-106 -64q-40 -22 -82 45z" />
<glyph unicode="+" d="M94 711q3 86 53 86h119q26 0 34.5 7t8.5 27v111q0 49 99 49q98 0 98 -49v-113q0 -18 9.5 -25t33.5 -7h123q53 0 53 -86q0 -93 -53 -93h-123q-24 0 -33.5 -8t-9.5 -26v-117q0 -49 -98 -49q-99 0 -99 49v113q0 22 -8.5 30t-34.5 8h-119q-55 0 -53 93z" />
<glyph unicode="," horiz-adv-x="385" d="M25 137q0 90 45 139q47 50 114 50q68 0 115 -50q55 -55 55 -192q0 -41 -7.5 -79.5t-28 -81t-52.5 -75.5t-86.5 -58.5t-124.5 -33.5q-17 -1 -20.5 9t-3.5 49q0 28 3.5 41.5t7.5 16t13 3.5q40 5 79 30t61 60q8 14 2 20t-23 -1q-12 -4 -29 -4q-51 0 -85.5 37.5t-34.5 119.5z " />
<glyph unicode="-" horiz-adv-x="698" d="M37 627q0 74 15 101.5t46 27.5h502q62 0 62 -133q0 -134 -62 -134h-502q-61 0 -61 138z" />
<glyph unicode="." horiz-adv-x="378" d="M31 158q0 90 45 135q44 41 112 41q71 0 115 -41q45 -45 45 -137q0 -91 -45 -136q-43 -40 -115 -40q-69 0 -112 40q-45 45 -45 138z" />
<glyph unicode="/" horiz-adv-x="606" d="M2 18l303 1395q3 12 10.5 19t43 13.5t100.5 6.5q67 0 101.5 -6.5t40.5 -14t3 -18.5l-303 -1395q-3 -12 -10.5 -18.5t-44 -13t-103.5 -6.5q-63 0 -96.5 6t-40 13.5t-4.5 18.5z" />
<glyph unicode="0" d="M39 315v795q0 163 108 254q98 82 263 82q164 0 262 -82q108 -91 108 -254v-795q0 -163 -108 -254q-97 -81 -262 -81q-166 0 -263 81q-108 91 -108 254zM354 350q0 -24 3 -38.5t16 -27t37 -12.5q34 0 44.5 20t10.5 58v729q0 38 -10.5 58t-44.5 20q-24 0 -37 -12.5t-16 -27 t-3 -38.5v-729z" />
<glyph unicode="1" d="M113 150q0 64 5 98.5t11.5 42.5t17.5 8h97q21 0 26.5 6.5t5.5 26.5v770q0 18 -11 20.5t-17 -4.5l-76 -49q-32 -21 -42 15q-7 25 -7 79q0 60 3.5 77.5t18.5 29.5q69 59 113 119q1 1 7.5 10t7.5 10t8 7.5t11.5 7.5t15 5.5t21.5 5t28 2.5t38 2.5t47 0.5q64 0 97.5 -5.5 t42 -13.5t8.5 -22v-1067q0 -20 6.5 -26.5t26.5 -6.5h96q11 0 17.5 -8t12 -42t5.5 -97q0 -64 -5.5 -99.5t-12 -44t-17.5 -8.5h-572q-11 0 -17.5 8.5t-11.5 43t-5 98.5z" />
<glyph unicode="2" d="M41 53v281q0 76 18 125.5t66 103.5l217 248q79 92 100 131.5t21 95.5v39q0 94 -62 94q-31 0 -41 -22.5t-10 -61.5v-100q0 -11 -8 -18t-42.5 -13t-96.5 -6q-65 0 -101 6.5t-44.5 14t-8.5 18.5v121q0 169 101 254q98 82 247 82q161 0 262 -84q117 -98 117 -254v-100 q0 -67 -41.5 -152.5t-99.5 -148.5l-232 -256q-12 -14 -17.5 -20.5t-11 -19.5t-5.5 -28v-41q0 -43 47 -43h329q11 0 18.5 -8t14 -42.5t6.5 -96.5q0 -152 -39 -152h-651q-53 0 -53 53z" />
<glyph unicode="3" d="M39 315v131q0 11 8.5 18.5t46 14t105.5 6.5q60 0 93 -6.5t40.5 -14t7.5 -18.5v-102q0 -35 15 -56.5t46 -21.5q30 0 46 23t16 55v201q0 37 -19 68.5t-57 31.5q-24 0 -45 -12l-4 -2q-3 -2 -5.5 -3.5t-8 -2t-11.5 0.5t-15.5 5t-20 10.5t-25 18.5t-31.5 28q-38 37 -53.5 60.5 t-14.5 34t11 22.5l244 274q15 17 6.5 39.5t-37.5 22.5h-285q-41 0 -39 143q1 59 7.5 92t13.5 41t18 8h625q29 0 41 -12.5t12 -40.5v-180q0 -43 -8 -64.5t-37 -56.5l-160 -194q-14 -15 -11 -30.5t30 -15.5q46 0 92 -22q51 -24 76.5 -91t25.5 -157v-246q0 -160 -108 -254 q-93 -81 -260 -81t-260 81q-52 45 -81.5 111t-29.5 143z" />
<glyph unicode="4" d="M18 285v202q0 28 17 68l313 840q7 17 19 25t56.5 14t131.5 6q80 0 124 -8.5t52 -16.5t8 -20v-854v-3q0 -11 1 -15.5t6.5 -8.5t17.5 -4h22q14 0 21.5 -7.5t12.5 -38.5t5 -93q0 -38 -2.5 -64.5t-6 -40.5t-9 -22t-10 -9.5t-11.5 -1.5h-20q-27 0 -27 -30v-174q0 -11 -7 -18.5 t-40.5 -14t-95.5 -6.5t-95.5 6.5t-40.5 14t-7 18.5v176q0 28 -35 28h-342q-19 0 -38.5 13t-19.5 39zM345.5 569q0.5 -8 0.5 -14v-12.5v-11.5t1 -9t3 -8t5.5 -5t9.5 -4t14 -1h45q18 0 23.5 9t5.5 30l8 430q0 35 -15 35q-9 0 -18 -33l-74 -357q-4 -16 -6 -25t-2.5 -12.5 t0 -11.5z" />
<glyph unicode="5" d="M37 123q0 44 4 76t9 47t13.5 23.5t12.5 9.5t12 2q133 9 199 24q54 13 88.5 32.5t50 47t20.5 53.5t5 64v90q0 35 -10 57t-38 21q-32 0 -49 -31q-6 -10 -15 -15.5t-44 -10.5t-98 -5q-150 0 -150 45v719q0 53 53 53h629q11 0 18 -7.5t13.5 -40t7.5 -91.5q2 -145 -39 -145 h-326q-43 0 -43 -35v-223q0 -15 15.5 -16.5t21.5 5.5q28 22 75 34t83 12q93 0 157 -73t64 -198v-164q0 -104 -37.5 -188.5t-100.5 -141t-151.5 -95.5t-186.5 -57.5t-208 -20.5q-17 0 -27 7t-19 40.5t-9 95.5z" />
<glyph unicode="6" d="M45 309v688q0 71 44.5 157.5t133.5 154.5q101 77 223.5 107t272.5 30q32 0 40.5 -22.5t8.5 -114.5q0 -59 -7 -87.5t-17 -35.5t-31 -8q-136 -7 -221 -34.5t-119 -94.5q-19 -37 -19 -101v-57q0 -19 11 -25.5t26 6.5q55 46 154 46q94 0 160.5 -73.5t66.5 -197.5v-352 q0 -78 -30 -139.5t-82 -99t-117.5 -57t-139.5 -19.5q-152 0 -255 87.5t-103 241.5zM360 324q0 -68 54 -68q53 0 53 68v272q0 21 -2 35t-14.5 28.5t-36.5 14.5q-54 0 -54 -78v-272z" />
<glyph unicode="7" d="M41 1292q2 133 41 133h661q43 0 43 -43v-137q0 -34 -4.5 -50.5t-21.5 -45.5q-153 -266 -221.5 -520.5t-59.5 -591.5q0 -8 -2 -13.5t-11.5 -12.5t-26.5 -11t-50 -7t-80 -3q-43 0 -70 0.5t-48 2.5t-31 5t-16 9t-7.5 12t-1.5 18q0 238 66.5 510.5t165.5 501.5q16 37 16 53 q0 23 -6 31t-27 8h-268q-43 0 -41 151z" />
<glyph unicode="8" d="M41 315v238q0 129 104 192q21 12 0 27q-86 63 -86 182v156q0 158 97 247t256 89q158 0 254 -89t96 -247v-156q0 -119 -86 -182q-21 -15 0 -27q102 -62 102 -192v-238q0 -162 -106 -254q-93 -81 -262 -81q-170 0 -263 81q-106 92 -106 254zM362 324q0 -68 54 -68 q53 0 53 68v235q0 21 -2 35t-14.5 28.5t-36.5 14.5q-54 0 -54 -78v-235zM365 936q0 -78 51 -78t51 78v174q0 59 -51 59t-51 -59v-174z" />
<glyph unicode="9" d="M45 778v352q0 103 53 176.5t134.5 106.5t181.5 33q152 0 255 -88t103 -242v-688q0 -70 -44.5 -156.5t-133.5 -154.5q-101 -77 -223.5 -107t-272.5 -30q-32 0 -40.5 22t-8.5 109q0 61 7 91.5t17 37.5t31 8q136 7 221 34.5t119 94.5q19 37 19 104v54q0 19 -11 25t-26 -7 q-54 -45 -154 -45q-94 0 -160.5 73t-66.5 197zM350 829q0 -21 2 -35t14.5 -28t36.5 -14q54 0 54 77v273q0 67 -54 67q-53 0 -53 -67v-273z" />
<glyph unicode=":" horiz-adv-x="378" d="M31 158q0 90 45 135q44 41 112 41q71 0 115 -41q45 -45 45 -137q0 -91 -45 -136q-43 -40 -115 -40q-69 0 -112 40q-45 45 -45 138zM31 670q0 90 45 135q44 41 112 41q71 0 115 -41q45 -45 45 -137q0 -91 -45 -136q-43 -40 -115 -40q-69 0 -112 40q-45 45 -45 138z" />
<glyph unicode=";" horiz-adv-x="385" d="M25 137q0 90 45 139q47 50 114 50q68 0 115 -50q55 -55 55 -192q0 -41 -7.5 -79.5t-28 -81t-52.5 -75.5t-86.5 -58.5t-124.5 -33.5q-16 -1 -19 8.5t-3 49.5q0 28 3 41.5t6.5 16t12.5 3.5q40 5 79 30t61 60q8 14 2 20t-23 -1q-12 -4 -29 -4q-51 0 -85.5 37.5t-34.5 119.5z M29 670q0 90 45 135q44 41 112 41q71 0 115 -41q45 -45 45 -137q0 -91 -45 -136q-43 -40 -115 -40q-69 0 -112 40q-45 45 -45 138z" />
<glyph unicode="&#x3c;" d="M152 711q0 120 20 133l451 207q16 7 23 7.5t13 -10t7.5 -34t1.5 -68.5q0 -41 -1.5 -65.5t-5 -36t-6.5 -14.5t-10 -5l-274 -102q-15 -5 -15 -14q0 -14 15 -19l274 -102q9 -2 13 -7.5t7 -32.5t3 -81q0 -45 -1.5 -68.5t-7.5 -34t-13 -10t-23 7.5l-451 207q-20 13 -20 142z " />
<glyph unicode="=" d="M94 567q0 53 10.5 71.5t32.5 18.5h537q25 0 38.5 -19t12.5 -73q-1 -53 -10.5 -69.5t-32.5 -16.5h-545q-22 0 -32.5 17.5t-10.5 70.5zM94 844q0 53 10.5 71.5t32.5 18.5h537q25 0 38.5 -19t12.5 -73q-1 -53 -10.5 -69.5t-32.5 -16.5h-545q-22 0 -32.5 17.5t-10.5 70.5z " />
<glyph unicode="&#x3e;" d="M152 467q0 54 3 80.5t6.5 32.5t12.5 8l275 102q14 5 14 19q0 9 -14 14l-275 102q-9 2 -12.5 8t-6.5 32.5t-3 80.5q0 45 1.5 68.5t7.5 34t13 10t23 -7.5l450 -207q21 -14 21 -133q0 -128 -21 -142l-450 -207q-16 -7 -23 -7.5t-13 10t-7.5 34t-1.5 68.5z" />
<glyph unicode="?" horiz-adv-x="813" d="M61 1020v90q0 151 99 243.5t258 92.5q185 0 280 -100t95 -279q0 -66 -8.5 -112t-34 -90.5t-50 -74.5t-79.5 -88q-50 -54 -66 -94t-16 -84v-67v-5t-1 -5.5t-3.5 -6t-8 -5.5t-13 -5.5t-19 -4.5t-27 -4t-37 -2t-47.5 -1q-67 0 -101 4.5t-43.5 12t-9.5 22.5v100q0 84 13 116 t67 95q4 5 27.5 32.5t31.5 38t27.5 35.5t27.5 40t19.5 36.5t16 40t4.5 35.5v51q0 72 -51 72q-16 0 -26.5 -6.5t-15.5 -13t-7.5 -20.5t-2.5 -18v-16v-55q0 -16 -8 -24.5t-41.5 -14.5t-97.5 -6q-98 0 -125 7.5t-27 37.5zM244 131v45q0 63 47 107q44 41 110 41q67 0 111 -41 q47 -44 47 -107v-45q0 -67 -47 -111q-43 -40 -111 -40q-67 0 -110 40q-47 44 -47 111z" />
<glyph unicode="@" horiz-adv-x="1646" d="M123 500q0 138 51 256t143.5 204t231 134.5t305.5 48.5q317 0 495.5 -166.5t172.5 -470.5q-2 -90 -21.5 -158t-47.5 -105.5t-66.5 -60.5t-71 -30t-68.5 -7q-134 0 -194 95q-8 13 -14 14t-17 -10q-51 -54 -110 -79.5t-105 -25.5q-72 0 -132.5 18.5t-107 56t-71 98.5 t-21.5 141l4 112q6 150 87.5 232t215.5 82q116 0 176 -66q24 -24 33 6q7 23 23.5 34t60.5 11q92 0 92 -47l-8 -387q-3 -156 86 -156q58 0 85 57t30 177q2 110 -25.5 198.5t-86 156.5t-158.5 105.5t-234 37.5q-138 0 -246 -39.5t-174.5 -109t-100.5 -160t-34 -197.5 q0 -228 138.5 -360t391.5 -132h207q43 0 43 -71q0 -82 -34 -82h-226q-323 0 -510.5 170.5t-187.5 474.5zM678 453q-3 -86 30 -127t93 -41q67 0 113.5 50t48.5 118l2 114q2 67 -42 115.5t-112 48.5q-123 0 -129 -166z" />
<glyph unicode="A" horiz-adv-x="823" d="M23 29l225 1372q1 11 9 18.5t44 14t102 6.5q73 0 112.5 -6.5t48 -14t9.5 -18.5l228 -1372q1 -11 -7.5 -18.5t-44.5 -14t-100 -6.5q-66 0 -102 6.5t-44 14t-9 18.5l-25 247q-1 22 -8.5 28.5t-26.5 6.5h-45q-12 0 -19 -1.5t-10.5 -7t-4 -10t-1.5 -16.5l-24 -247 q-1 -11 -9.5 -18.5t-45 -14t-103.5 -6.5q-63 0 -98.5 6.5t-43.5 14t-7 18.5zM367 559v-5q0 -24 26 -24h37q27 0 27 24v5l-27 399q-3 29 -16 29q-14 0 -17 -29z" />
<glyph unicode="B" horiz-adv-x="888" d="M82 33v1360q0 13 9.5 22.5t23.5 9.5h360q137 0 233.5 -83.5t96.5 -227.5v-158q0 -73 -24.5 -118t-86.5 -78q-26 -13 0 -21q63 -16 98 -74.5t35 -119.5v-191q0 -53 -9.5 -100t-35.5 -95t-66.5 -82t-107.5 -55.5t-153 -21.5h-340q-13 0 -23 10t-10 23zM397 309 q0 -12 1 -17.5t8.5 -10.5t23.5 -5q90 0 90 60v201q0 19 -8 31t-23.5 16.5t-28 6t-30.5 1.5q-33 0 -33 -33v-250zM397 899q0 -33 33 -33q78 0 78 54v163q0 38 -18.5 52t-59.5 14q-33 0 -33 -33v-217z" />
<glyph unicode="C" horiz-adv-x="821" d="M72 315v795q0 163 108 254q98 82 262 82q150 0 248 -82q101 -85 101 -254v-149q0 -39 -148 -39q-61 0 -95 5.5t-42 12.5t-8 18v121q0 38 -11 58t-45 20t-44.5 -20.5t-10.5 -57.5v-729q0 -24 2.5 -38.5t15.5 -27t37 -12.5q34 0 45 20t11 58v119q0 39 143 39q150 0 150 -39 v-154q0 -171 -99 -254q-97 -81 -250 -81q-165 0 -262 81q-108 91 -108 254z" />
<glyph unicode="D" horiz-adv-x="884" d="M82 33v1360q0 13 9.5 22.5t23.5 9.5h362q136 0 236 -87.5t100 -231.5v-789q0 -17 -2.5 -38.5t-12 -53t-24.5 -61t-43 -60t-64 -53t-91 -37t-121 -14.5h-340q-13 0 -23 10t-10 23zM397 309q0 -13 9.5 -23t23.5 -10h35q15 0 29 16t14 38v766q0 23 -14 38t-29 15h-35 q-14 0 -23.5 -9.5t-9.5 -23.5v-807z" />
<glyph unicode="E" horiz-adv-x="704" d="M82 33v1360q0 13 9.5 22.5t23.5 9.5h536q39 0 39 -135q0 -141 -39 -141h-225q-33 0 -33 -33v-209q0 -33 33 -33h121q11 0 18 -7.5t13 -38t6 -85.5q0 -57 -6 -88.5t-13 -39t-18 -7.5h-121q-33 0 -33 -33v-266q0 -33 33 -33h225q39 0 39 -137q0 -139 -39 -139h-536 q-13 0 -23 10t-10 23z" />
<glyph unicode="F" horiz-adv-x="714" d="M82 33v1360q0 13 9.5 22.5t23.5 9.5h557q39 0 39 -128v-13q-1 -57 -7.5 -88.5t-13.5 -39t-18 -7.5h-246q-33 0 -33 -33v-252q0 -33 33 -33h141q39 0 39 -131q0 -135 -39 -135h-141q-33 0 -33 -33v-499q0 -13 -9.5 -23t-23.5 -10h-245q-13 0 -23 10t-10 23z" />
<glyph unicode="G" horiz-adv-x="884" d="M72 285v856q0 73 39 141.5t102 108.5q86 55 238 55q131 0 211 -51q67 -43 106 -107.5t39 -134.5v-192q0 -39 -150 -39q-61 0 -94 5.5t-41 12.5t-8 18v121q0 78 -63 78q-64 0 -64 -78v-729q0 -78 64 -78q63 0 63 78v111q0 18 -6 24.5t-27 6.5q-12 0 -19 7t-12.5 34 t-5.5 75q0 45 5.5 70t13 32t18.5 7h293q14 0 23.5 -9.5t9.5 -23.5v-289l6 -372q0 -13 -9.5 -23t-23.5 -10h-35q-8 0 -16 6t-11.5 11t-10.5 16l-15 28q-9 17 -18.5 18t-28.5 -14q-87 -72 -215 -75h-12q-118 0 -205 55q-63 40 -102 108.5t-39 141.5z" />
<glyph unicode="H" horiz-adv-x="882" d="M82 29v1372q0 11 8 18.5t43.5 14t99.5 6.5q65 0 101 -6.5t44.5 -14t8.5 -18.5v-494q0 -13 9.5 -23t23.5 -10h59q13 0 23 10t10 23v494q0 39 143 39q146 0 146 -39v-1372q0 -39 -146 -39q-143 0 -143 39v536q0 13 -10 23t-23 10h-59q-14 0 -23.5 -10t-9.5 -23v-536 q0 -11 -8.5 -18.5t-45 -14t-102.5 -6.5q-63 0 -98 6.5t-43 14t-8 18.5z" />
<glyph unicode="I" horiz-adv-x="520" d="M102 29v1372q0 11 8.5 18.5t45.5 14t104 6.5t104 -6.5t45.5 -14t8.5 -18.5v-1372q0 -11 -8.5 -18.5t-45.5 -14t-104 -6.5t-104 6.5t-45.5 14t-8.5 18.5z" />
<glyph unicode="J" horiz-adv-x="811" d="M20 315v154q0 39 146 39q62 0 96.5 -6.5t42.5 -14t8 -18.5v-119q0 -38 11 -58t45 -20t44.5 20.5t10.5 57.5v1051q0 11 8.5 18.5t45.5 14t104 6.5t104 -6.5t45 -14t8 -18.5v-1086q0 -163 -108 -254q-97 -81 -262 -81q-153 0 -250 81q-99 83 -99 254z" />
<glyph unicode="K" horiz-adv-x="913" d="M82 29v1372q0 11 8.5 18.5t44.5 14t101 6.5q70 0 108.5 -6.5t46.5 -14t8 -18.5v-496q0 -35 35 -35q31 0 44.5 12t13.5 42v477q0 11 8 18.5t44 14t101 6.5q66 0 102.5 -6.5t45 -14t8.5 -18.5l-4 -440q0 -166 -103 -203q-6 -2 -10 -6.5t-1.5 -9.5t11.5 -7q62 -14 90.5 -67 t32.5 -119l25 -520q0 -11 -8.5 -18.5t-46.5 -14t-107 -6.5q-71 0 -110 6.5t-47.5 14t-8.5 18.5l-6 512q0 30 -11.5 42.5t-35.5 12.5h-27q-37 0 -37 -37v-530q0 -11 -8.5 -18.5t-48 -14t-111.5 -6.5q-62 0 -96.5 6.5t-42.5 14t-8 18.5z" />
<glyph unicode="L" horiz-adv-x="700" d="M82 33v1368q0 11 8.5 18.5t44.5 14t101 6.5q68 0 106 -6.5t46.5 -14t8.5 -18.5v-1092q0 -33 33 -33h238q39 0 39 -135q0 -141 -39 -141h-553q-13 0 -23 10t-10 23z" />
<glyph unicode="M" horiz-adv-x="1089" d="M82 29v1372q0 39 139 39q65 0 101.5 -7t44 -14t10.5 -18l137 -477q7 -23 13.5 -33t17.5 -10q8 0 13 6t7.5 13.5t7.5 25.5l134 475q3 11 10 18t42.5 14t98.5 7q150 0 150 -39v-1372q0 -11 -8.5 -18.5t-44.5 -14t-101 -6.5q-67 0 -104 6.5t-45.5 14t-8.5 18.5l13 708 q0 14 -7.5 22.5t-15.5 8.5q-7 0 -14 -8.5t-10 -22.5l-58 -268q-3 -12 -15 -22.5t-22 -10.5h-49q-35 0 -41 37l-53 264q-3 14 -11.5 21.5t-15.5 7.5t-14.5 -8.5t-7.5 -20.5l8 -708q0 -39 -152 -39q-63 0 -98 6.5t-43 14t-8 18.5z" />
<glyph unicode="N" horiz-adv-x="964" d="M82 29v1372q0 39 139 39q59 0 92.5 -7.5t40.5 -14t11 -17.5l167 -539q9 -28 27 -28q19 0 19 32l-11 535q0 11 8.5 18.5t46 14t105.5 6.5q66 0 102.5 -6.5t45 -14t8.5 -18.5v-1372q0 -39 -138 -39q-139 0 -149 47l-164 577q-9 29 -24 29q-7 0 -14 -8.5t-7 -20.5l8 -585 q0 -11 -8.5 -18.5t-47.5 -14t-110 -6.5q-62 0 -96.5 6.5t-42.5 14t-8 18.5z" />
<glyph unicode="O" horiz-adv-x="884" d="M72 315v795q0 163 108 254q98 82 262 82q165 0 263 -82q108 -91 108 -254v-795q0 -163 -108 -254q-97 -81 -263 -81q-165 0 -262 81q-108 91 -108 254zM387 350q0 -78 64 -78q63 0 63 78v729q0 78 -63 78q-64 0 -64 -78v-729z" />
<glyph unicode="P" horiz-adv-x="858" d="M82 29v1364q0 13 9.5 22.5t23.5 9.5h338q66 0 128.5 -21t113 -59t81.5 -98t31 -133v-321q0 -34 -8 -69.5t-33 -80.5t-64 -79t-109 -57.5t-161 -23.5q-39 0 -39 -41l4 -413q0 -11 -8.5 -18.5t-47 -14t-108.5 -6.5q-64 0 -99.5 6.5t-43.5 14t-8 18.5zM399 770q0 -33 33 -33 q39 0 61.5 15.5t22.5 44.5v286q0 37 -20.5 51.5t-63.5 14.5q-33 0 -33 -33v-346z" />
<glyph unicode="Q" horiz-adv-x="884" d="M72 315v795q0 163 108 254q98 82 262 82q165 0 263 -82q108 -91 108 -254v-795q0 -103 -49 -183.5t-141 -119.5q-25 -11 -25 -37v-20q0 -32 25 -43.5t94 -11.5q17 0 26 -19t9 -78q0 -41 -6 -64t-13.5 -28.5t-19.5 -5.5h-62q-44 0 -80 2.5t-80.5 10t-78.5 23.5t-63.5 40 t-45.5 62.5t-16 88.5v39q0 29 -27 41q-188 83 -188 303zM387 346q0 -78 64 -78q63 0 63 78v733q0 78 -63 78q-64 0 -64 -78v-733z" />
<glyph unicode="R" horiz-adv-x="901" d="M82 29v1364q0 13 9.5 22.5t23.5 9.5h360q137 0 233.5 -83.5t96.5 -227.5v-162q0 -162 -111 -202q-6 -2 -10 -6.5t-1.5 -9.5t11.5 -7q111 -24 115 -186l20 -512q0 -11 -8.5 -18.5t-45.5 -14t-105 -6.5q-72 0 -111.5 6.5t-48 14t-8.5 18.5v503q0 56 -47 56h-21 q-37 0 -37 -39v-520q0 -11 -8.5 -18.5t-47.5 -14t-110 -6.5q-63 0 -98 6.5t-43 14t-8 18.5zM397 895q0 -33 33 -33q78 0 78 53v168q0 40 -18 53t-60 13q-33 0 -33 -33v-221z" />
<glyph unicode="S" horiz-adv-x="860" d="M61 1061q0 99 23 171t92 130q101 84 262 84q150 0 248 -82q100 -84 100 -254v-80q0 -39 -143 -39q-61 0 -95 6t-42 13t-8 18v59q0 36 -15 60t-47 24q-33 0 -48 -27t-15 -67q0 -31 10 -59t19.5 -45.5t36.5 -43.5t36.5 -33.5t44.5 -35.5l27 -21q34 -26 52 -40t49 -43.5 t48.5 -52.5t40 -60.5t34 -76t20 -90t8.5 -109.5q0 -98 -25 -173t-94 -133q-97 -81 -262 -81q-151 0 -248 81q-100 84 -100 254v125q0 39 134 39h13q60 -1 92.5 -7t40.5 -12.5t8 -17.5v-104q0 -82 60 -82q31 0 46 27t15 63q0 55 -10.5 96t-37.5 78t-54 63.5t-80 69.5 q-47 39 -70 59t-61 62t-56.5 78t-33.5 91t-15 118z" />
<glyph unicode="T" horiz-adv-x="665" d="M-6 1280v13q0 132 39 132h600q39 0 39 -132v-13q-1 -59 -7.5 -91.5t-13.5 -40t-18 -7.5h-109q-13 0 -22.5 -9.5t-9.5 -23.5l-5 -1079q0 -11 -8.5 -18.5t-46.5 -14t-106 -6.5q-65 0 -101 6.5t-44.5 14t-8.5 18.5l2 1079q0 14 -10 23.5t-23 9.5h-108q-11 0 -18 7.5 t-13.5 40t-7.5 91.5z" />
<glyph unicode="U" horiz-adv-x="884" d="M72 315v1086q0 11 8 18.5t45 14t104 6.5t104 -6.5t45.5 -14t8.5 -18.5v-1051q0 -78 64 -78q63 0 63 78v1051q0 39 150 39q63 0 98 -6.5t43 -14t8 -18.5v-1086q0 -163 -108 -254q-97 -81 -263 -81q-165 0 -262 81q-108 91 -108 254z" />
<glyph unicode="V" horiz-adv-x="806" d="M23 1401q-1 11 7.5 18.5t45 14t102.5 6.5q70 0 108 -6.5t46.5 -14t9.5 -18.5l51 -750q3 -28 17 -28q13 0 16 28l59 750q1 11 9 18.5t43 14t98 6.5t98.5 -6.5t43.5 -14t7 -18.5l-221 -1372q-1 -11 -10 -18.5t-46 -14t-104 -6.5t-104 6.5t-45.5 14t-9.5 18.5z" />
<glyph unicode="W" horiz-adv-x="1030" d="M33 1401q-1 11 7 18.5t43.5 14t98.5 6.5q68 0 105.5 -6.5t46 -14t8.5 -18.5l39 -928q0 -29 18 -29q16 0 19 29l28 475q4 35 76 35q70 0 74 -35l29 -475q3 -29 16 -29q16 0 16 29l45 928q0 39 148 39q62 0 97 -6.5t43 -14t7 -18.5l-127 -1372q-1 -11 -9.5 -19t-43.5 -14 q-30 -6 -82 -6h-16q-57 1 -88.5 7.5t-39.5 13.5t-9 18l-41 266q-5 30 -19.5 30t-19.5 -30l-39 -266q-1 -11 -9.5 -18.5t-44.5 -14t-100 -6.5q-62 0 -96.5 6.5t-43 14t-9.5 18.5z" />
<glyph unicode="X" horiz-adv-x="847" d="M23 1401q-1 3 -1 6t1 5q2 5 12.5 10.5t28.5 9t51 6t78 2.5q72 0 110.5 -6.5t46 -13.5t10.5 -19l56 -268q6 -29 16 -29q11 0 16 24q1 3 1 5l55 268q3 12 10.5 19t45 13.5t104.5 6.5t105 -6.5t46.5 -14.5t5.5 -18l-207 -625q-7 -22 -7 -41q0 -16 5 -30l213 -676q1 -3 1 -5 q0 -7 -6 -13q-8 -8 -46 -14.5t-104 -6.5t-102 6.5t-43.5 13.5t-10.5 19l-61 284q0 2 -1 5q-7 23 -16 24q-10 0 -16 -29l-62 -284q-3 -12 -11 -19t-48 -13.5t-113 -6.5q-67 0 -105 6.5t-46.5 14.5t-5.5 18l223 682q4 15 4 29q0 21 -8 42z" />
<glyph unicode="Y" horiz-adv-x="786" d="M12 1401q-2 11 7 18.5t47 14t106 6.5q67 0 104.5 -6.5t46 -14t9.5 -18.5l49 -490q3 -28 16 -28q14 0 17 28l61 490q1 11 9 18.5t43 14t98 6.5t98.5 -6.5t44 -14t6.5 -18.5l-211 -752q-12 -47 -12 -106l6 -514q0 -11 -8.5 -18.5t-46.5 -14t-107 -6.5t-107 6.5t-46.5 14 t-8.5 18.5l7 512q0 41 -15 100z" />
<glyph unicode="Z" horiz-adv-x="724" d="M41 53v281q0 10 2.5 20t5 15.5t7.5 16t7 15.5l304 678q11 20 4 41t-35 21h-242q-39 0 -39 134v13q1 58 7.5 90t13.5 39.5t18 7.5h535q29 0 41 -12.5t12 -40.5v-180q0 -49 -10 -78q-309 -767 -320 -767v1q-13 -31 0 -47t39 -16h264q11 0 17.5 -8t12 -41t5.5 -93 q0 -143 -39 -143h-557q-53 0 -53 53z" />
<glyph unicode="[" horiz-adv-x="595" d="M82 -233v1695q0 20 12.5 32.5t32.5 12.5h393q39 0 37 -106q-2 -98 -37 -98h-141q-33 0 -33 -29v-1315q0 -33 33 -33h143q37 0 37 -104q0 -101 -37 -101h-395q-19 0 -32 15t-13 31z" />
<glyph unicode="\" horiz-adv-x="606" d="M2 1413q-3 11 3 18.5t40.5 14t101.5 6.5q65 0 100.5 -6.5t43 -13.5t10.5 -19l303 -1395q2 -11 -4.5 -18.5t-40 -13.5t-96.5 -6q-67 0 -103.5 6.5t-44 13t-10.5 18.5z" />
<glyph unicode="]" horiz-adv-x="595" d="M35 -178q0 104 37 104h143q33 0 33 33v1315q0 29 -33 29h-141q-35 0 -37 98q-2 106 37 106h393q20 0 32.5 -12.5t12.5 -32.5v-1695q0 -16 -13 -31t-32 -15h-395q-37 0 -37 101z" />
<glyph unicode="^" d="M62 1016q-1 9 8 24l258 410q5 7 10 10.5t22 6.5t48 3q68 0 81 -20l261 -410q18 -30 -10 -38q-21 -7 -78 -7q-43 0 -67 3t-30 6.5t-12 11.5l-127 153q-11 17 -18 17q-10 0 -21 -17l-121 -153q-6 -7 -11 -10.5t-28.5 -7t-66.5 -3.5q-94 0 -98 21z" />
<glyph unicode="_" horiz-adv-x="1028" d="M-37 -264q0 14 9.5 23.5t23.5 9.5h1036q14 0 23.5 -9.5t9.5 -23.5v-109q0 -13 -9.5 -23t-23.5 -10h-1036q-14 0 -23.5 10t-9.5 23v109z" />
<glyph unicode="`" horiz-adv-x="546" d="M106 1323q-17 22 31 32q37 7 107 7q61 0 89.5 -3.5t36.5 -9t11 -18.5l61 -211q1 -8 0 -16t-20 -14t-57 -7q-40 -1 -64 4t-30 10t-13 15z" />
<glyph unicode="a" horiz-adv-x="884" d="M61 305q0 42 15.5 87t47.5 89t92.5 72.5t139.5 28.5q63 0 131 -33q15 -8 24 -2t9 24v78q0 92 -76 92q-34 0 -54.5 -24t-22.5 -55q-1 -7 -2.5 -10.5t-9 -9.5t-21.5 -9t-41 -5.5t-66 -2.5q-69 0 -104 6.5t-42 14.5t-7 24q0 62 26 120.5t72.5 104.5t117.5 74t154 28 q166 0 265 -77q56 -42 85 -107t29 -139v-647q0 -11 -7.5 -18t-38 -13t-85.5 -6q-89 0 -114.5 10t-28.5 35q0 2 -1.5 12.5t-3 16.5t-5.5 6q-3 0 -6.5 -5t-8.5 -13t-8 -11q-49 -57 -147 -61h-9q-145 0 -229 96q-70 81 -70 229zM367 295q0 -109 73 -109q37 0 58.5 20t21.5 42 v88q0 21 -22 39t-58 18q-33 0 -53 -25t-20 -73z" />
<glyph unicode="b" horiz-adv-x="864" d="M72 29v1372q0 11 8 18.5t42.5 14t96.5 6.5q148 0 148 -39l-5 -449q0 -34 15 -34q6 0 20 18q47 61 146 61q55 0 104.5 -21t81.5 -58q74 -83 74 -277v-301q0 -195 -76 -281q-32 -36 -83.5 -57.5t-106.5 -21.5q-102 0 -154 61q-3 3 -7 10t-7 11t-7 4q-6 0 -12 -29 q-3 -25 -27.5 -35.5t-109.5 -11.5h-13q-128 0 -128 39zM383 360q0 -44 11 -64t42 -20q51 0 51 84v267q0 82 -53 82q-51 0 -51 -86v-263z" />
<glyph unicode="c" horiz-adv-x="827" d="M61 315v347q0 160 107 253q94 82 256 82t256 -82q106 -92 106 -253v-27q0 -11 -5.5 -17.5t-39 -13t-96.5 -6.5q-69 0 -103 6.5t-39 13t-5 19.5q0 78 -62 78q-61 0 -61 -78v-293q0 -78 61 -78q62 0 62 78q0 15 6.5 22.5t39.5 13t99 5.5t96 -3.5t38.5 -11t8.5 -24.5v-31 q0 -162 -106 -254q-93 -81 -256 -81t-256 81q-107 93 -107 254z" />
<glyph unicode="d" horiz-adv-x="864" d="M61 336v305q0 194 74 277q32 37 82 58t105 21q98 0 145 -61q14 -18 20 -18q15 0 15 34l-4 449q0 11 8 18.5t42.5 14t96.5 6.5q148 0 148 -39v-1372q0 -39 -129 -39h-13q-85 1 -109.5 11.5t-27.5 35.5q-6 29 -12 29q-4 0 -7 -4t-7 -11t-7 -10q-52 -61 -153 -61 q-55 0 -107 21.5t-84 57.5q-76 86 -76 277zM377 356q0 -84 51 -84q31 0 42 20t11 64v267q0 86 -51 86q-53 0 -53 -82v-271z" />
<glyph unicode="e" horiz-adv-x="860" d="M61 315v347q0 160 107 253q94 82 256 82t256 -82q106 -92 106 -253v-166q0 -32 -11.5 -43t-41.5 -11h-323q-35 0 -35 -32v-66q0 -78 61 -78q62 0 62 68q0 15 6.5 22t39 12t99.5 5q96 0 120.5 -6.5t22.5 -30.5v-21q0 -74 -27.5 -141.5t-78.5 -112.5q-87 -81 -256 -81 q-163 0 -256 81q-107 93 -107 254zM375 604q0 -20 8 -26.5t29 -6.5h49q37 0 37 33v66q0 65 -60 65q-63 0 -63 -78v-53z" />
<glyph unicode="f" horiz-adv-x="571" d="M-6 840q1 56 7.5 87t13.5 38.5t18 7.5h22q25 0 25 31v106q0 163 108 254q93 82 236 82h90q39 0 39 -146q0 -143 -39 -143h-59q-64 0 -64 -78v-75q0 -31 31 -31h96q39 0 39 -137q0 -142 -39 -142h-92q-31 0 -31 -30v-635q0 -11 -8 -18.5t-45 -14t-104 -6.5t-104 6.5 t-45.5 14t-8.5 18.5v635q0 30 -31 30h-16q-39 0 -39 133v13z" />
<glyph unicode="g" horiz-adv-x="864" d="M61 362v279q0 191 76 277q32 36 84 57.5t107 21.5q101 0 153 -61q3 -3 7.5 -10.5t7.5 -11t6 -3.5q6 0 12 29q3 25 27.5 36t109.5 11q142 0 142 -39v-1034q0 -78 -28.5 -146t-80.5 -112q-98 -82 -262 -82q-152 0 -250 82q-49 42 -76.5 111t-27.5 143q0 11 7.5 17.5 t42.5 12t99 5.5q66 0 97 -4t40.5 -11.5t12.5 -23.5q13 -62 63 -62q76 0 76 97v118q0 29 -10 29q-3 0 -23 -25q-52 -57 -154 -57q-54 0 -105 21.5t-83 58.5q-70 79 -70 276zM377 379q0 -84 51 -84q31 0 42 20t11 64v244q0 86 -51 86q-53 0 -53 -82v-248z" />
<glyph unicode="h" horiz-adv-x="864" d="M72 29v1372q0 12 7.5 19.5t40 13.5t93.5 6q63 0 94 -4t39 -10.5t8 -20.5l-4 -467q0 -18 12 -18q6 0 19 16q23 27 63 44t76 17h31.5t37.5 -4t47.5 -11.5t45 -24t45.5 -39.5q76 -86 76 -277v-612q0 -39 -150 -39q-71 0 -110 6.5t-47.5 14t-8.5 18.5v596q0 84 -51 84 q-49 0 -49 -84v-596q0 -11 -8.5 -18.5t-45 -14t-102.5 -6.5q-68 0 -105 6.5t-45.5 14t-8.5 18.5z" />
<glyph unicode="i" horiz-adv-x="456" d="M61 1276q0 83 52 135q44 41 114 41q73 0 117 -41q51 -51 51 -135q0 -88 -51 -137q-44 -41 -117 -41q-70 0 -114 41q-52 49 -52 137zM72 29v919q0 11 8 18.5t45 14t104 6.5q66 0 102.5 -6.5t45 -14t8.5 -18.5v-919q0 -11 -8.5 -18.5t-45 -14t-102.5 -6.5q-67 0 -104 6.5 t-45 14t-8 18.5z" />
<glyph unicode="j" horiz-adv-x="477" d="M-68 -287v14q0 136 39 136h56q63 0 63 78v1007q0 11 8.5 18.5t44.5 14t101 6.5q69 0 107 -6.5t46.5 -14t8.5 -18.5v-1038q0 -162 -109 -254q-93 -82 -236 -82h-90q-11 0 -18 7.5t-13.5 40t-7.5 91.5zM72 1276q0 84 51 135q44 41 115 41q72 0 116 -41q52 -52 52 -135 q0 -88 -52 -137q-44 -41 -116 -41q-71 0 -115 41q-51 49 -51 137z" />
<glyph unicode="k" horiz-adv-x="872" d="M72 29v1372q0 11 8 18.5t44.5 14t102.5 6.5q68 0 105.5 -6.5t46 -14t8.5 -18.5l-4 -699q0 -23 2.5 -30.5t9.5 -7.5q11 0 19 24l84 264q3 11 8.5 16.5t39 11.5t99.5 7h25q30 1 54 -1q33 -2 48.5 -6t24.5 -9.5t7.5 -10.5t-1.5 -10l-156 -352q-10 -22 2 -51l199 -518 q2 -5 2 -9q0 -6 -3 -10q-6 -8 -40.5 -14t-101.5 -6q-71 0 -110 6.5t-46 12t-10 14.5l-90 272q-5 16 -19 16q-4 0 -6.5 -1t-4 -2.5t-4.5 -5t-5 -5.5l-13 -12q-10 -10 -10 -33v-223q0 -11 -8.5 -18.5t-45 -14t-102.5 -6.5q-68 0 -105 6.5t-45.5 14t-8.5 18.5z" />
<glyph unicode="l" horiz-adv-x="458" d="M72 29v1372q0 11 8 18.5t45 14t104 6.5t104 -6.5t45.5 -14t8.5 -18.5v-1372q0 -11 -8.5 -18.5t-45 -14t-102.5 -6.5q-68 0 -105 6.5t-45.5 14t-8.5 18.5z" />
<glyph unicode="m" horiz-adv-x="1290" d="M72 29v919q0 12 7.5 19.5t39.5 13.5t92 6q62 0 92.5 -4t38.5 -10.5t8 -20.5v-14q0 -20 12 -20q5 0 19 18q23 27 61 44t74 17h15.5h18.5t19.5 -1.5t22.5 -4t22.5 -7.5t25.5 -12.5t25 -18.5t27 -25q16 -14 22 -13.5t21 13.5q42 40 80.5 54.5t95.5 14.5q134 0 211 -71 q56 -52 76.5 -121t20.5 -164v-612q0 -39 -150 -39q-71 0 -110 6.5t-47.5 14t-8.5 18.5v596q0 84 -53 84q-47 0 -47 -84v-596q0 -11 -8.5 -18.5t-45 -14t-102.5 -6.5q-68 0 -105.5 6.5t-46 14t-8.5 18.5v596q0 84 -51 84q-49 0 -49 -84v-596q0 -11 -8.5 -18.5t-47.5 -14 t-110 -6.5q-63 0 -98 6.5t-43 14t-8 18.5z" />
<glyph unicode="n" horiz-adv-x="874" d="M72 29v919q0 12 7.5 19.5t41.5 13.5t96 6q61 0 91 -4t38 -10.5t8 -20.5v-14q0 -18 13 -18q5 0 18 16q23 27 61 44t74 17h31.5t37.5 -4t47.5 -11.5t45 -24t45.5 -39.5q76 -86 76 -277v-612q0 -11 -8.5 -18.5t-44.5 -14t-101 -6.5q-69 0 -107 6.5t-46.5 14t-8.5 18.5v596 q0 84 -51 84q-49 0 -49 -84v-596q0 -11 -8.5 -18.5t-46.5 -14t-107 -6.5q-65 0 -101 6.5t-44 14t-8 18.5z" />
<glyph unicode="o" horiz-adv-x="847" d="M61 315v347q0 160 107 253q94 82 256 82t256 -82q106 -92 106 -253v-347q0 -162 -106 -254q-93 -81 -256 -81t-256 81q-107 93 -107 254zM375 350q0 -78 61 -78q62 0 62 78v281q0 78 -64 78q-59 0 -59 -78v-281z" />
<glyph unicode="p" horiz-adv-x="864" d="M72 -377v1325q0 39 137 39q61 0 92 -6.5t39 -15t10 -25.5q6 -29 12 -29q4 0 7 3.5t7 11t7 10.5q52 61 154 61q55 0 106.5 -21.5t83.5 -57.5q76 -86 76 -277v-305q0 -194 -74 -277q-32 -37 -81.5 -58t-104.5 -21q-99 0 -146 61q-14 18 -20 18q-15 0 -15 -34l5 -402 q0 -39 -148 -39q-62 0 -96.5 6.5t-42.5 14t-8 18.5zM383 354q0 -86 51 -86q53 0 53 82v271q0 84 -51 84q-31 0 -42 -20t-11 -64v-267z" />
<glyph unicode="q" horiz-adv-x="864" d="M61 336v305q0 191 76 277q32 36 84 57.5t107 21.5q99 0 151 -61q2 -2 5 -6.5t5 -7t5 -5.5t5.5 -4.5t4.5 -1.5q7 0 11.5 7.5t12.5 31.5q6 18 13.5 26t36.5 14.5t84 6.5q131 0 131 -39v-1335q0 -39 -148 -39q-62 0 -96.5 6.5t-42.5 14t-8 18.5l4 402q0 34 -15 34 q-6 0 -20 -18q-47 -61 -145 -61q-55 0 -105 21t-82 58q-74 83 -74 277zM377 350q0 -82 53 -82q51 0 51 86v267q0 44 -11 64t-42 20q-51 0 -51 -84v-271z" />
<glyph unicode="r" horiz-adv-x="595" d="M72 29v917q0 6 1.5 10.5t10 10.5t22.5 10t41.5 7t65.5 3q61 0 92.5 -5.5t39 -13t7.5 -20.5v-22q0 -14 6 -17.5t15 9.5q49 79 192 79q15 0 22 -8.5t11 -40.5t4 -100q0 -75 -5 -111.5t-12 -44t-22 -6.5q-40 4 -61 4q-62 0 -91.5 -23t-29.5 -77l4 -561q0 -11 -8.5 -18.5 t-45.5 -14t-104 -6.5q-66 0 -102.5 6.5t-44.5 14t-8 18.5z" />
<glyph unicode="s" horiz-adv-x="800" d="M51 305q0 39 148 39q62 0 95 -6t38.5 -11.5t5.5 -15.5q1 -22 2.5 -33t6.5 -28t17 -25t31 -8q22 0 35.5 15t13.5 44q0 27 -13 47.5t-37.5 35t-45.5 23t-52.5 18t-43.5 14.5q-90 35 -141.5 101.5t-51.5 189.5q0 131 96.5 211.5t239.5 80.5q137 0 229.5 -78t104.5 -225 q1 -14 -4.5 -22t-39 -14.5t-99.5 -6.5q-65 0 -96 3.5t-41 11t-11 24.5q-3 64 -51 64q-20 0 -31.5 -14.5t-11.5 -39.5q0 -12 4 -22.5t14.5 -20t19.5 -16.5t28.5 -16t32 -14t40.5 -16t43 -17q224 -89 224 -314q0 -118 -98 -201t-251 -83t-251.5 86.5t-98.5 238.5z" />
<glyph unicode="t" horiz-adv-x="577" d="M-4 850q1 53 7 82.5t12.5 37t17.5 7.5h16q31 0 31 31v137q0 11 8 18.5t44.5 18.5t103.5 22q60 10 97 10q62 0 62 -28v-178q0 -31 31 -31h82q11 0 18 -7.5t13.5 -38.5t7.5 -87v-13q0 -133 -39 -133h-86q-31 0 -31 -30v-322q0 -78 64 -78h69q11 0 18.5 -8t14 -42t6.5 -95 q0 -143 -39 -143h-100q-144 0 -236 81q-108 91 -108 254v353q0 30 -25 30h-22q-11 0 -19 8q-7 8 -13 44q-5 30 -5 82v18z" />
<glyph unicode="u" horiz-adv-x="864" d="M61 336v610q0 41 162 41q154 0 154 -41v-594q0 -84 51 -84q49 0 49 84v596q0 11 8.5 18.5t46 14t105.5 6.5q66 0 102.5 -6.5t45 -14t8.5 -18.5v-919q0 -12 -8 -19.5t-42.5 -13.5t-97.5 -6q-60 0 -89.5 4t-37.5 10.5t-8 20.5v14q0 20 -10 20q-7 0 -21 -18q-23 -27 -61 -44 t-74 -17h-31.5t-37.5 4t-47.5 11.5t-45 24t-45.5 39.5q-76 86 -76 277z" />
<glyph unicode="v" horiz-adv-x="774" d="M23 952q-1 9 4 15t40.5 13t102.5 7q71 0 109.5 -7t43.5 -13t7 -15l43 -503q5 -29 16 -29q12 0 17 29l63 503q1 9 7 15t40.5 13t97.5 7q65 0 98 -7t37 -13t3 -15l-228 -929q-6 -33 -141 -33q-133 0 -139 33z" />
<glyph unicode="w" horiz-adv-x="952" d="M33 952q-1 9 3.5 15t37.5 13t96 7q135 0 135 -35l39 -485q0 -29 14 -29q17 0 17 29l20 485q0 33 88 33q90 0 90 -33l17 -485q0 -29 16 -29q15 0 15 29l30 485q0 35 137 35q60 0 92 -7t36.5 -13t3.5 -15l-146 -929q-6 -33 -123 -33q-121 0 -127 33l-24 249q-2 16 -4 20.5 t-11 4.5q-11 0 -14 -25l-39 -249q-6 -33 -127 -33t-127 33z" />
<glyph unicode="x" horiz-adv-x="804" d="M25 11q-2 4 -2 8.5t2 9.5l182 434q11 26 0 57l-166 430q-3 9 1 15.5t40 14t106 7.5q66 0 99 -4.5t41 -11t12 -21.5l49 -229q4 -25 17 -25q2 0 4 0.5t3.5 2.5t2.5 3t1.5 4t1 4.5t1 5t0.5 5.5l49 231q3 11 8.5 17t41 12t102.5 6q65 0 98.5 -6.5t38 -13.5t0.5 -17l-176 -428 q-12 -27 -2 -51l200 -442q2 -11 2 -12q0 -5 -8 -9q-8 -6 -22 -9.5t-43 -6t-70 -2.5q-66 0 -102.5 6.5t-42.5 12t-9 14.5l-67 251q-6 19 -17 19q-7 0 -8.5 -3.5t-3.5 -15.5l-61 -251q-6 -33 -156 -33q-71 0 -107 7t-40 14z" />
<glyph unicode="y" horiz-adv-x="763" d="M23 952q-1 9 4 15t43 13t110 7q63 0 96.5 -7t38.5 -13t7 -15l45 -518q5 -28 16 -28t16 28l62 518q1 5 2.5 8.5t10.5 9t23.5 9t44 6t70.5 2.5q66 0 100 -7t38 -14q3 -3 3 -8q0 -3 -1 -6l-234 -915l-94 -420q-2 -11 -9.5 -17t-40 -11t-93.5 -5q-67 0 -102 7t-40.5 14.5 t-1.5 17.5l125 342q4 12 2 19.5t-5 10.5t-7 3q-18 0 -25 22z" />
<glyph unicode="z" horiz-adv-x="673" d="M12 246v10v6q0 6 1.5 15.5t7 19t14.5 20.5l270 320q20 28 20 47q0 7 -3 14q-10 23 -41 23h-211q-39 0 -39 133q0 123 39 123h548q14 0 23.5 -9.5t9.5 -23.5v-221q0 -13 -9 -34.5t-17 -33.5l-279 -336q-10 -17 -10 -30q0 -29 41 -29h254q39 0 39 -127q0 -133 -39 -133 h-586q-13 0 -23 10t-10 23v200v13z" />
<glyph unicode="{" horiz-adv-x="673" d="M16 629q0 49 7.5 65.5t25.5 16.5q53 1 86 32.5t31 67.5l-12 326q-4 48 -1.5 92.5t11 81.5t36 70.5t74.5 58.5q132 71 318 71q25 0 35 -21t10 -93q0 -70 -10 -90t-39 -23q-39 -3 -64.5 -9.5t-50 -20.5t-35.5 -41t-10 -68l10 -336q2 -60 -25.5 -110t-86.5 -72 q57 -17 85.5 -70t26.5 -113l-10 -350q-1 -41 10.5 -68.5t35 -42t50 -20.5t64.5 -8q30 -2 40 -23.5t9 -95.5q-1 -69 -10.5 -88.5t-34.5 -19.5q-186 0 -318 71q-62 34 -91 83t-29.5 103.5t0.5 123.5l12 333q2 37 -30.5 68.5t-86.5 32.5q-18 0 -25.5 17t-7.5 69z" />
<glyph unicode="|" d="M311 -457v2061q0 13 9.5 22.5t23.5 9.5h129q14 0 23.5 -9.5t9.5 -22.5v-2061q0 -13 -9.5 -22.5t-23.5 -9.5h-129q-14 0 -23.5 9.5t-9.5 22.5z" />
<glyph unicode="}" horiz-adv-x="673" d="M37 -164q-1 74 9 95.5t40 23.5q38 2 64.5 8t50 20.5t35 42t10.5 68.5l-10 350q-2 60 26.5 113t85.5 70q-59 22 -86.5 72t-25.5 110l10 336q1 41 -10 68t-35.5 41t-50 20.5t-64.5 9.5q-29 3 -39 23t-10 90q0 72 10 93t35 21q185 0 317 -71q47 -25 74.5 -58.5t36.5 -70.5 t11 -81.5t-1 -92.5l-12 -326q-2 -36 31 -67.5t86 -32.5q18 0 25 -16.5t7 -65.5q0 -52 -7 -69t-25 -17q-54 -1 -86.5 -32.5t-30.5 -68.5l12 -333q4 -49 1.5 -94.5t-11 -83.5t-36 -72t-75.5 -60q-132 -71 -317 -71q-25 0 -34.5 19.5t-10.5 88.5z" />
<glyph unicode="~" d="M14 527.5q-1 8.5 4 17.5l123 291q6 16 14.5 24t38.5 14.5t87 6.5q55 0 87 -9t38 -15.5t14 -20.5l65 -115q14 -24 35 0l90 115q1 2 6 9t6 8.5t5.5 7t7.5 6.5t9 4.5t12 4.5l15 2.5t19.5 2t24.5 0.5q65 0 80.5 -14t5.5 -42l-123 -290q-6 -15 -15 -21t-35.5 -9.5t-84.5 -4.5 q-55 -1 -87.5 5t-40.5 12t-16 18l-75 110q-18 28 -37 0l-78 -110q-11 -15 -18 -20.5t-28.5 -10t-64.5 -4.5q-31 0 -50 3.5t-26 9.5t-8 14.5z" />
<glyph unicode="&#xa1;" horiz-adv-x="503" d="M61 -377l21 920q0 39 141 39q139 0 139 -39l19 -920q0 -11 -8.5 -18.5t-46.5 -14t-107 -6.5q-67 0 -104 6.5t-45.5 14t-8.5 18.5zM66 801v45q0 66 47 110q44 41 110 41q67 0 111 -41q47 -44 47 -110v-45q0 -63 -47 -107q-44 -41 -111 -41q-66 0 -110 41q-47 44 -47 107z " />
<glyph unicode="&#xa2;" horiz-adv-x="837" d="M61 319v343q0 160 107 253q42 38 111 62q13 4 16.5 11.5t3.5 27.5v102q0 14 9.5 23.5t23.5 9.5h190q14 0 23.5 -9.5t9.5 -23.5v-102q0 -21 5.5 -29.5t25.5 -15.5q54 -22 94 -56q106 -92 106 -253v-27q0 -11 -5.5 -17.5t-39 -13t-96.5 -6.5q-69 0 -103 6.5t-39 13t-5 19.5 q0 78 -62 78q-61 0 -61 -78v-289q0 -78 61 -78q62 0 62 78q0 15 6.5 22.5t39.5 13t99 5.5t96 -3.5t38.5 -11t8.5 -24.5v-31q0 -161 -106 -253q-43 -37 -107 -60q-18 -6 -18 -33v-112q0 -13 -9.5 -23t-23.5 -10h-190q-14 0 -23.5 10t-9.5 23v112q0 25 -18 31q-74 27 -113 62 q-107 93 -107 253z" />
<glyph unicode="&#xa3;" horiz-adv-x="876" d="M82 49l14 481v467q0 47 13.5 97.5t55.5 115t109 115.5q55 41 114 67t127 37t121 14t134 3q32 0 40.5 -22t8.5 -109q0 -61 -7 -91.5t-17 -37.5t-31 -8q-70 -4 -113 -9t-91.5 -17t-79.5 -35.5t-48 -59.5q-20 -45 -20 -117v-94q0 -18 6.5 -25.5t25.5 -7.5h140q39 0 39 -139 q0 -58 -6 -90t-13.5 -39.5t-19.5 -7.5h-138q-23 0 -28.5 -6t-5.5 -27l-4 -185q0 -25 10.5 -34t34.5 -9h340q40 0 38 -139q-1 -58 -7 -90t-13 -39.5t-18 -7.5h-660q-51 0 -51 49z" />
<glyph unicode="&#xa4;" d="M35 426.5q2 7.5 12 15.5l62 50q9 8 10.5 13t-2.5 19q-31 85 -31 170t31 170q7 21 -8 33l-62 49q-9 8 -11.5 16t6.5 25.5t32 44.5q54 63 80 41l67 -59q10 -9 17 -9.5t22 7.5q72 32 150 32q77 0 149 -32q15 -8 22 -7.5t17 9.5l68 59q8 6 14.5 7.5t23 -9t39.5 -37.5 q25 -29 34 -47t7 -25.5t-12 -15.5l-61 -49q-16 -13 -9 -33q31 -85 31 -170t-31 -170q-4 -14 -2.5 -19t11.5 -13l61 -50q10 -8 12 -15.5t-7 -25.5t-34 -47q-23 -27 -39.5 -37.5t-23 -9t-14.5 7.5l-68 60q-10 9 -17 9.5t-22 -7.5q-74 -33 -149 -33q-76 0 -150 33 q-15 8 -22 7.5t-17 -9.5l-67 -60q-26 -22 -78 39q-25 29 -34 47t-7 25.5zM303 694q0 -27 1.5 -48t8 -47t17.5 -43t31.5 -28.5t48.5 -11.5q35 0 57.5 16t31.5 46t12 55t3 61t-3 61t-12 55t-31.5 46t-57.5 16q-28 0 -48.5 -11.5t-31.5 -28.5t-17.5 -43t-8 -47t-1.5 -48z" />
<glyph unicode="&#xa5;" horiz-adv-x="847" d="M43 1401q-2 11 7 18.5t48.5 14t110.5 6.5q65 0 100.5 -6.5t43.5 -14t9 -18.5l54 -490q3 -28 16 -28q14 0 17 28l57 490q1 11 9 18.5t42.5 14t97.5 6.5q159 0 150 -39l-143 -512q-6 -17 -2.5 -24t22.5 -7h55q37 0 37 -86q0 -88 -37 -88h-100q-17 0 -26 -4t-13 -18l-8 -29 q-6 -19 1 -23t30 -4h116q37 0 37 -90q0 -84 -37 -84h-135q-33 0 -33 -35l2 -368q0 -11 -8 -18.5t-42.5 -14t-96.5 -6.5q-143 0 -143 39v372q0 20 -9.5 25.5t-27.5 5.5h-129q-37 0 -37 84q0 90 37 90h114q38 0 29 31l-8 25q-4 11 -5.5 13.5t-9 5.5t-22.5 3h-98q-37 0 -37 94 q0 80 37 80h51q29 0 20 31z" />
<glyph unicode="&#xa6;" d="M301 420q0 14 9.5 23.5t23.5 9.5h149q13 0 23 -9.5t10 -23.5v-877q0 -13 -9.5 -22.5t-23.5 -9.5h-149q-14 0 -23.5 9.5t-9.5 22.5v877zM301 727v877q0 13 9.5 22.5t23.5 9.5h149q14 0 23.5 -9.5t9.5 -22.5v-877q0 -13 -10 -23t-23 -10h-149q-14 0 -23.5 10t-9.5 23z" />
<glyph unicode="&#xa7;" horiz-adv-x="921" d="M102 739q0 85 54 160q8 13 9 23t-1.5 14t-9.5 14q-52 61 -52 146q0 91 22.5 154t90.5 118q96 78 258 78q148 0 242 -76q98 -79 98 -229v-58q0 -36 -133 -36q-139 0 -139 36v56q0 36 -19 58t-55 22q-34 0 -53 -26t-19 -65q0 -38 23.5 -65.5t61 -45.5t82.5 -35.5t90 -40 t82.5 -52.5t61 -81.5t23.5 -119.5q0 -87 -53 -164q-10 -16 -11 -23.5t11 -23.5q53 -62 53 -147q0 -91 -22 -154.5t-90 -118.5q-95 -77 -258 -77q-149 0 -242 75q-98 79 -98 230v57q0 37 135 37q137 0 137 -37v-55q0 -36 19 -58t55 -22q34 0 52.5 25.5t18.5 64.5 q0 38 -23.5 66t-61 46t-82.5 35.5t-90 40t-82.5 53t-61 82t-23.5 119.5zM328 791q0 -14 3.5 -27t13.5 -25t17.5 -21.5t26 -21t28.5 -18.5t35 -19t35.5 -17t40 -18t39.5 -18q20 -4 25 10q2 4 2 19q0 14 -4 27t-13 25t-18 21.5t-26 20.5t-28.5 18.5t-35 18.5t-36 17t-40 18 t-39.5 18q-19 5 -24 -10z" />
<glyph unicode="&#xa8;" horiz-adv-x="782" d="M102 1204v35q0 59 37 92q33 33 92 33q62 0 95 -33q36 -32 36 -92v-35q0 -60 -36 -92q-33 -33 -95 -33q-59 0 -92 33q-37 33 -37 92zM420 1204v35q0 59 37 92q33 33 92 33q61 0 94 -33q37 -33 37 -92v-35q0 -59 -37 -92q-33 -33 -94 -33q-59 0 -92 33q-37 33 -37 92z" />
<glyph unicode="&#xa9;" horiz-adv-x="1665" d="M102 666v92q0 353 189 530q103 97 242 149t298 52t298.5 -52t242.5 -149q191 -179 191 -530v-92q0 -352 -191 -531q-103 -97 -242.5 -149t-298.5 -52t-298 52t-242 149q-189 177 -189 531zM238 666q0 -312 151 -453q84 -77 198 -119.5t244 -42.5q131 0 245 42.5 t198 119.5q153 143 153 453v92q0 309 -153 452q-84 77 -198 119.5t-245 42.5q-130 0 -244 -42.5t-198 -119.5q-151 -141 -151 -452v-92zM532 487v435q0 140 76 213q39 37 100.5 58t127.5 21t128 -21t101 -58q76 -73 76 -213v-60q0 -37 -84 -35q-84 3 -84 33v101 q0 48 -37.5 86t-99.5 38q-64 0 -101 -38t-37 -86v-502q0 -48 37.5 -86.5t100.5 -38.5q62 0 99.5 38.5t37.5 86.5v116q0 34 82 37q86 2 86 -37v-88q0 -140 -76 -213q-39 -37 -101 -58t-128 -21t-127.5 21t-100.5 58q-76 73 -76 213z" />
<glyph unicode="&#xaa;" horiz-adv-x="425" d="M41 1135q0 45 33 85t100 40q33 0 59 -15q15 -7 15 10v35q0 41 -35 41q-14 0 -23.5 -10t-11.5 -23q0 -16 -12 -16h-100q-19 0 -19 18q0 59 46.5 103.5t119.5 44.5q76 0 119 -37q53 -38 53 -111v-286q0 -6 -4.5 -11.5t-11.5 -5.5h-90q-16 0 -19 19q0 14 -4 14q-2 0 -10 -12 q-24 -27 -66 -27q-66 -3 -106 43q-33 36 -33 101zM86 877v55q0 24 25 24h227q10 0 17 -7t7 -17v-55q0 -11 -7 -18t-17 -7h-227q-11 0 -18 7t-7 18zM178 1130q0 -49 35 -49q16 0 25.5 9.5t9.5 19.5v39q0 10 -9.5 18.5t-25.5 8.5q-35 0 -35 -46z" />
<glyph unicode="&#xab;" horiz-adv-x="761" d="M49 623q-15 27 0 61l144 287q7 14 14 21t30 12.5t64 5.5t62.5 -5.5t24 -14.5t-0.5 -19l-113 -285q-12 -30 0 -65l113 -285q3 -10 0.5 -19t-23.5 -14.5t-61 -5.5q-42 0 -65.5 5.5t-30.5 12.5t-14 21zM338 623q-15 27 0 61l145 287q8 14 14.5 21t29 12.5t63.5 5.5t63 -5.5 t24 -14.5t-1 -19l-113 -285q-12 -30 0 -65l113 -285q3 -10 1 -19t-22.5 -14.5t-60.5 -5.5q-43 0 -66.5 5.5t-30 12.5t-14.5 21z" />
<glyph unicode="&#xac;" d="M94 762q0 90 45 90h533q21 0 35 -13t14 -32v-293q0 -20 -21.5 -30.5t-78.5 -10.5q-97 0 -97 41v121q0 22 -8.5 30.5t-34.5 8.5h-342q-22 0 -33.5 18.5t-11.5 69.5z" />
<glyph unicode="&#xad;" horiz-adv-x="698" d="M37 627q0 74 15 101.5t46 27.5h502q62 0 62 -133q0 -134 -62 -134h-502q-61 0 -61 138z" />
<glyph unicode="&#xae;" horiz-adv-x="901" d="M31 1083v47q0 202 106 302q116 110 303 110t303 -110q107 -101 107 -302v-47q0 -200 -107 -301q-116 -110 -303 -110t-303 110q-106 100 -106 301zM131 1083q0 -166 80 -243q88 -82 229 -82q142 0 230 82q80 77 80 243v47q0 167 -80 244q-88 82 -230 82q-141 0 -229 -82 q-80 -77 -80 -244v-47zM307 877v489q0 16 23 16h98q87 0 140 -38.5t53 -110.5v-19q0 -42 -15 -64.5t-57 -39.5q-2 -1 -4.5 -2.5t-3.5 -3.5t1 -3.5t7 -2.5q68 -11 72 -103l4 -118q0 -9 -6 -15t-15 -6h-53q-9 0 -15 6.5t-6 14.5v106q0 50 -28 67q-20 13 -53 13h-33 q-9 0 -15 -5.5t-6 -13.5v-167q0 -21 -20 -21h-45q-9 0 -16 6.5t-7 14.5zM395 1151q0 -8 6 -13t15 -5h20q12 0 29.5 4t39 23t21.5 50v19q0 9 -2 18t-9 25.5t-27 26.5t-50 10h-22q-9 0 -15 -5.5t-6 -13.5v-139z" />
<glyph unicode="&#xaf;" horiz-adv-x="661" d="M98 1212q0 95 37 95h391q39 0 37 -95q-2 -92 -37 -92h-391q-37 0 -37 92z" />
<glyph unicode="&#xb0;" horiz-adv-x="602" d="M41 1217v57q0 107 65 158q77 61 195 61q116 0 193 -61q67 -52 67 -158v-57q0 -106 -67 -158q-78 -62 -193 -62q-117 0 -195 62q-65 51 -65 158zM213 1221q0 -34 20.5 -58t67.5 -24q44 0 65 24.5t21 57.5v55q0 34 -20.5 58t-65.5 24q-47 0 -67.5 -24t-20.5 -58v-55z" />
<glyph unicode="&#xb1;" d="M94 459q0 90 49 90h123q26 0 34.5 7.5t8.5 29.5v45q0 22 -8.5 30.5t-34.5 8.5h-123q-49 0 -49 88t49 88h123q26 0 34.5 7t8.5 28v114q0 45 97 45q100 0 100 -45v-116q0 -18 9.5 -25.5t33.5 -7.5h127q49 0 49 -88q0 -50 -12.5 -69t-36.5 -19h-127q-24 0 -33.5 -8.5 t-9.5 -26.5v-53q0 -18 9.5 -25.5t33.5 -7.5h127q52 0 49 -92q-1 -48 -13 -66t-36 -18h-533q-49 0 -49 86z" />
<glyph unicode="&#xb4;" horiz-adv-x="546" d="M102.5 1110q0.5 5 1.5 10l62 211q3 13 11 18.5t36.5 9t89.5 3.5q152 0 141 -33l-4 -6l-151 -211q-7 -10 -13 -15t-30 -10t-64 -4q-24 1 -40 3.5t-24 6t-12 8t-3.5 9.5z" />
<glyph unicode="&#xb5;" horiz-adv-x="874" d="M61 -377l11 686v639q0 11 8 18.5t45 14t104 6.5t104 -6.5t45.5 -14t8.5 -18.5v-592q0 -84 51 -84q49 0 49 84v592q0 11 8.5 18.5t45.5 14t104 6.5t104 -6.5t45.5 -14t8.5 -18.5v-921q0 -12 -7.5 -19t-39.5 -12.5t-92 -5.5q-88 0 -112 6.5t-24 26.5v16q0 20 -10 20 q-9 0 -18 -18q-21 -41 -78 -41q-8 0 -20 3t-15 3q-17 0 -14 -37l8 -346q0 -11 -8.5 -18.5t-46 -14t-105.5 -6.5t-105.5 6.5t-46 14t-8.5 18.5z" />
<glyph unicode="&#xb6;" horiz-adv-x="892" d="M51 868v293q0 131 86.5 208t224.5 77h386q43 0 43 -43v-1299q0 -78 -29 -129t-96 -84q-58 -29 -126 -37t-182 -8q-17 0 -25.5 12.5t-8.5 55.5q0 42 6 55t26 13q117 0 172 49q47 41 47 121v1099q0 23 -18 23q-20 0 -20 -23v-1091q0 -142 -177 -142q-21 0 -27.5 8.5 t-6.5 39.5q0 35 4.5 43t23.5 10q24 2 39.5 8.5t21.5 17t7.5 17.5t1.5 16v369q0 23 -29 26q-61 4 -111 15.5t-94.5 33.5t-74 54t-47 81t-17.5 111zM307 879q0 -47 22.5 -84t67.5 -37q15 0 21 5.5t6 18.5v467q0 10 -1 13.5t-6 6.5t-16 3q-47 0 -70.5 -38t-23.5 -85v-270z" />
<glyph unicode="&#xb7;" horiz-adv-x="423" d="M53 682v43q0 70 45 115q44 41 113 41q71 0 115 -41q45 -45 45 -115v-43q0 -70 -45 -115q-44 -41 -115 -41q-69 0 -113 41q-45 45 -45 115z" />
<glyph unicode="&#xb8;" horiz-adv-x="684" d="M92.5 -368.5q-3.5 13.5 9.5 55.5q13 37 20 45t21 6q25 -4 34 -5.5t35.5 -5t39 -3.5t34.5 0.5t34 5t26.5 11.5t22 19.5t10.5 28.5q7 49 -35 57q-63 8 -96 -30q-9 -14 -29 -11l-94 19q-23 5 -12 31l55 155q1 2 2 5.5t2 4.5t2 3t3 3t4.5 2t6.5 1h9h96q9 -1 12 -9t0 -14 l-26 -63q-5 -12 -2 -17t9.5 -5t12.5 1q76 22 131 12q79 -13 118 -58.5t25 -121.5q-16 -89 -90.5 -127.5t-177.5 -36.5q-116 0 -192 23q-17 5 -20.5 18.5z" />
<glyph unicode="&#xba;" horiz-adv-x="409" d="M41 1141v153q0 72 49 115q43 37 115 37q71 0 114 -37q50 -44 50 -115v-153q0 -71 -50 -115q-43 -37 -114 -37q-72 0 -115 37q-49 43 -49 115zM72 877v55q0 24 24 24h228q10 0 17 -7t7 -17v-55q0 -11 -7 -18t-17 -7h-228q-10 0 -17 7t-7 18zM182 1157q0 -37 29 -37 q27 0 27 37v123q0 35 -27 35q-29 0 -29 -35v-123z" />
<glyph unicode="&#xbb;" horiz-adv-x="761" d="M85 317q-2 9 1 19l113 285q12 35 0 65l-113 285q-3 10 -1 19t24 14.5t63 5.5t63.5 -5.5t29 -12.5t14.5 -21l145 -287q15 -34 0 -61l-145 -287q-8 -14 -14.5 -21t-30 -12.5t-66.5 -5.5q-40 0 -60.5 5.5t-22.5 14.5zM374.5 317q-2.5 9 0.5 19l112 285q12 35 0 65l-112 285 q-3 10 -0.5 19t24 14.5t62.5 5.5t64 -5.5t30 -12.5t14 -21l144 -287q15 -34 0 -61l-144 -287q-7 -14 -14 -21t-30.5 -12.5t-65.5 -5.5q-40 0 -61 5.5t-23.5 14.5z" />
<glyph unicode="&#xbf;" horiz-adv-x="813" d="M20 -53q0 49 7.5 89t17.5 67.5t36.5 63.5t46 58.5t65.5 71.5q49 54 65 93.5t16 84.5v53v5t1 5.5t3.5 6t7.5 5.5t12.5 5.5t19.5 4.5t27 4t36 2t47 1q68 0 102.5 -4.5t44 -12t9.5 -22.5v-86q0 -84 -13 -116t-67 -95q-4 -5 -27.5 -32.5t-31.5 -38t-27.5 -35.5t-27.5 -40 t-19.5 -36.5t-16 -40t-4.5 -35.5v-30q0 -72 51 -72q52 0 52 74v43q0 16 8 25t41.5 15.5t97.5 6.5q96 0 124 -8.5t28 -38.5v-78q0 -151 -99 -243.5t-258 -92.5q-186 0 -280.5 97.5t-94.5 275.5zM285 801v45q0 66 47 110q44 41 110 41q67 0 111 -41q47 -44 47 -110v-45 q0 -63 -47 -107q-44 -41 -111 -41q-66 0 -110 41q-47 44 -47 107z" />
<glyph unicode="&#xc0;" horiz-adv-x="823" d="M23 29l225 1372q1 11 9 18.5t44 14t102 6.5q73 0 112.5 -6.5t48 -14t9.5 -18.5l228 -1372q1 -11 -7.5 -18.5t-44.5 -14t-100 -6.5q-66 0 -102 6.5t-44 14t-9 18.5l-25 247q-1 22 -8.5 28.5t-26.5 6.5h-45q-12 0 -19 -1.5t-10.5 -7t-4 -10t-1.5 -16.5l-24 -247 q-1 -11 -9.5 -18.5t-45 -14t-103.5 -6.5q-63 0 -98.5 6.5t-43.5 14t-7 18.5zM205 1776q-17 22 32 32q35 7 105 7q61 0 89.5 -3.5t36.5 -9t11 -18.5l62 -211q1 -5 1.5 -10t-3.5 -9.5t-12 -8t-24 -6t-40 -3.5q-40 -1 -64 4t-30 10t-13 15zM367 559q-3 -29 26 -29h37 q30 0 27 29l-27 399q-3 29 -16 29q-14 0 -17 -29z" />
<glyph unicode="&#xc1;" horiz-adv-x="823" d="M23 29l225 1372q1 11 9 18.5t44 14t102 6.5q73 0 112.5 -6.5t48 -14t9.5 -18.5l228 -1372q1 -11 -7.5 -18.5t-44.5 -14t-100 -6.5q-66 0 -102 6.5t-44 14t-9 18.5l-25 247q-1 22 -8.5 28.5t-26.5 6.5h-45q-12 0 -19 -1.5t-10.5 -7t-4 -10t-1.5 -16.5l-24 -247 q-1 -11 -9.5 -18.5t-45 -14t-103.5 -6.5q-63 0 -98.5 6.5t-43.5 14t-7 18.5zM258.5 1563q0.5 5 1.5 10l62 211q3 13 11 18.5t36.5 9t89.5 3.5q152 0 141 -33l-4 -6l-152 -211q-7 -10 -13 -15t-29.5 -10t-63.5 -4q-24 1 -40 3.5t-24 6t-12 8t-3.5 9.5zM367 559q-3 -29 26 -29 h37q30 0 27 29l-27 399q-3 29 -16 29q-14 0 -17 -29z" />
<glyph unicode="&#xc2;" horiz-adv-x="823" d="M23 29l225 1372q1 11 9 18.5t44 14t102 6.5q73 0 112.5 -6.5t48 -14t9.5 -18.5l228 -1372q1 -11 -7.5 -18.5t-44.5 -14t-100 -6.5q-66 0 -102 6.5t-44 14t-9 18.5l-25 247q-1 22 -8.5 28.5t-26.5 6.5h-45q-12 0 -19 -1.5t-10.5 -7t-4 -10t-1.5 -16.5l-24 -247 q-1 -11 -9.5 -18.5t-45 -14t-103.5 -6.5q-63 0 -98.5 6.5t-43.5 14t-7 18.5zM106 1552q2 7 7 13l182 219q11 15 17 19.5t28.5 8t69.5 3.5q49 0 72.5 -3.5t30 -8.5t17.5 -19l183 -219q22 -26 -21 -35q-18 -4 -49 -4q-37 0 -58.5 3t-25 5t-14.5 10l-109 80q-26 18 -49 0 l-102 -78q-12 -10 -16.5 -12.5t-24 -5t-58.5 -2.5q-84 0 -80 26zM367 559q-3 -29 26 -29h37q30 0 27 29l-27 399q-3 29 -16 29q-14 0 -17 -29z" />
<glyph unicode="&#xc3;" horiz-adv-x="823" d="M23 29l225 1372q1 11 9 18.5t44 14t102 6.5q73 0 112.5 -6.5t48 -14t9.5 -18.5l228 -1372q1 -11 -7.5 -18.5t-44.5 -14t-100 -6.5q-66 0 -102 6.5t-44 14t-9 18.5l-25 247q-1 22 -8.5 28.5t-26.5 6.5h-45q-12 0 -19 -1.5t-10.5 -7t-4 -10t-1.5 -16.5l-24 -247 q-1 -11 -9.5 -18.5t-45 -14t-103.5 -6.5q-63 0 -98.5 6.5t-43.5 14t-7 18.5zM87.5 1545.5q0.5 7.5 4.5 15.5l121 198q7 12 12.5 16.5t25 7.5t60.5 3q36 0 56.5 -4t24 -6.5t11.5 -10.5l80 -69q14 -9 20.5 -6.5t18.5 14.5l47 45l5 5l4.5 4.5t5 4t7.5 4t9.5 2.5t13.5 2.5 t17.5 1.5t23.5 1q40 1 59 -4t18 -13t-5 -16l-121 -199q-10 -16 -26.5 -21t-69.5 -5q-17 0 -29.5 1t-19.5 2t-13.5 4t-9 4t-7.5 5.5t-7 5.5l-88 64q-19 15 -39 -5l-47 -45q-1 -1 -4 -4.5t-4.5 -4.5t-4.5 -3.5t-6 -3.5t-8 -2.5t-10.5 -2.5t-13.5 -1.5t-18.5 -1t-22.5 -0.5 q-36 0 -53.5 5t-17 12.5zM367 559q-3 -29 26 -29h37q30 0 27 29l-27 399q-3 29 -16 29q-14 0 -17 -29z" />
<glyph unicode="&#xc4;" horiz-adv-x="823" d="M23 29l225 1372q1 11 9 18.5t44 14t102 6.5q73 0 112.5 -6.5t48 -14t9.5 -18.5l228 -1372q1 -11 -7.5 -18.5t-44.5 -14t-100 -6.5q-66 0 -102 6.5t-44 14t-9 18.5l-25 247q-1 22 -8.5 28.5t-26.5 6.5h-45q-12 0 -19 -1.5t-10.5 -7t-4 -10t-1.5 -16.5l-24 -247 q-1 -11 -9.5 -18.5t-45 -14t-103.5 -6.5q-63 0 -98.5 6.5t-43.5 14t-7 18.5zM123 1657v35q0 59 37 92q33 33 92 33q61 0 94 -33q37 -33 37 -92v-35q0 -59 -37 -92q-33 -33 -94 -33q-59 0 -92 33q-37 33 -37 92zM367 559q-3 -29 26 -29h37q30 0 27 29l-27 399q-3 29 -16 29 q-14 0 -17 -29zM440 1657v35q0 59 37 92q33 33 92 33q62 0 95 -33q36 -32 36 -92v-35q0 -60 -36 -92q-33 -33 -95 -33q-59 0 -92 33q-37 33 -37 92z" />
<glyph unicode="&#xc5;" horiz-adv-x="823" d="M23 29l225 1372q1 11 9 18.5t44 14t102 6.5q73 0 112.5 -6.5t48 -14t9.5 -18.5l228 -1372q1 -11 -7.5 -18.5t-44.5 -14t-100 -6.5q-66 0 -102 6.5t-44 14t-9 18.5l-25 247q-1 22 -8.5 28.5t-26.5 6.5h-45q-12 0 -19 -1.5t-10.5 -7t-4 -10t-1.5 -16.5l-24 -247 q-1 -11 -9.5 -18.5t-45 -14t-103.5 -6.5q-63 0 -98.5 6.5t-43.5 14t-7 18.5zM184 1671v62q0 71 62 118q27 21 74 33t92 12t92 -12t74 -33q59 -45 59 -118v-62q0 -72 -59 -117q-27 -21 -74 -33t-92 -12t-92 12t-74 33q-62 47 -62 117zM338 1675q0 -25 18.5 -43t55.5 -18 t54 18t17 43v64q0 24 -17 40.5t-54 16.5t-55.5 -16.5t-18.5 -40.5v-64zM367 559q-3 -29 26 -29h37q30 0 27 29l-27 399q-3 29 -16 29q-14 0 -17 -29z" />
<glyph unicode="&#xc6;" horiz-adv-x="1116" d="M2 29l315 1364q7 32 35 32h711q39 0 39 -135q0 -141 -39 -141h-225q-33 0 -33 -33v-211q0 -33 33 -33h120q11 0 18 -7.5t13 -38.5t6 -87t-6 -87t-13 -38.5t-18 -7.5h-120q-33 0 -33 -33v-264q0 -33 33 -33h225q41 0 39 -141q-1 -57 -7.5 -88.5t-13.5 -39t-18 -7.5h-539 q-30 0 -30 33v252q0 16 -8 21t-25 5h-49q-23 0 -28.5 -6.5t-8.5 -28.5l-45 -247q-3 -12 -11 -19t-46.5 -13.5t-108.5 -6.5t-108.5 6.5t-47 14t-6.5 18.5zM399 559q-3 -29 25 -29h39q12 0 21.5 5.5t9.5 13.5v432q0 12 -5.5 19.5t-13.5 7.5q-15 0 -18 -29z" />
<glyph unicode="&#xc7;" horiz-adv-x="821" d="M72 317v793q0 163 108 254q98 82 262 82q150 0 248 -82q101 -85 101 -254v-149q0 -39 -148 -39q-61 0 -95 5.5t-42 12.5t-8 18v121q0 38 -11 58t-45 20t-44.5 -20.5t-10.5 -57.5v-727q0 -24 2.5 -38.5t15.5 -27t37 -12.5q34 0 45 20t11 58v119q0 39 143 39q150 0 150 -39 v-154q0 -171 -99 -254q-93 -81 -235 -81q-12 0 -16 -0.5t-8.5 -4.5t-8.5 -14l-8 -26q-5 -12 -2 -17t9.5 -5t12.5 1q77 22 131 12q79 -13 118.5 -58.5t25.5 -121.5q-16 -89 -91 -127.5t-178 -36.5q-116 0 -192 23q-17 5 -20 19t12 57q13 36 19.5 43.5t19.5 5.5 q26 -4 34.5 -5.5t35 -5t38.5 -3.5t34.5 0.5t34 5t26 11.5t22 19.5t10.5 28.5q7 49 -35 57q-26 3 -54 -4t-42 -26q-9 -14 -29 -11l-94 19q-23 5 -12 30l41 121q2 7 3 12.5t-0.5 9.5t-2.5 6.5t-5 5t-5.5 3.5t-6.5 2l-4 2q-54 19 -90 53q-108 91 -108 254z" />
<glyph unicode="&#xc8;" horiz-adv-x="704" d="M82 33v1360q0 13 9.5 22.5t23.5 9.5h536q39 0 39 -135q0 -141 -39 -141h-225q-33 0 -33 -33v-209q0 -33 33 -33h121q11 0 18 -7.5t13 -38t6 -85.5q0 -57 -6 -88.5t-13 -39t-18 -7.5h-121q-33 0 -33 -33v-266q0 -33 33 -33h225q39 0 39 -137q0 -139 -39 -139h-536 q-13 0 -23 10t-10 23zM145 1776q-17 22 31 32q37 7 107 7q61 0 89.5 -3.5t36.5 -9t11 -18.5l61 -211q1 -5 1.5 -10t-3.5 -9.5t-12 -8t-24 -6t-40 -3.5q-40 -1 -63.5 4t-29.5 10t-13 15z" />
<glyph unicode="&#xc9;" horiz-adv-x="704" d="M82 33v1360q0 13 9.5 22.5t23.5 9.5h536q39 0 39 -135q0 -141 -39 -141h-225q-33 0 -33 -33v-209q0 -33 33 -33h121q11 0 18 -7.5t13 -38t6 -85.5q0 -57 -6 -88.5t-13 -39t-18 -7.5h-121q-33 0 -33 -33v-266q0 -33 33 -33h225q39 0 39 -137q0 -139 -39 -139h-536 q-13 0 -23 10t-10 23zM219.5 1563q0.5 5 1.5 10l62 211q3 13 11 18.5t36.5 9t89.5 3.5q152 0 141 -33l-4 -6l-151 -211q-7 -10 -13 -15t-30 -10t-64 -4q-24 1 -40 3.5t-24 6t-12 8t-3.5 9.5z" />
<glyph unicode="&#xca;" horiz-adv-x="704" d="M67 1552q2 7 7 13l182 219q11 15 17 19.5t28.5 8t69.5 3.5q49 0 72.5 -3.5t30.5 -8.5t18 -19l182 -219q22 -26 -21 -35q-18 -4 -49 -4q-37 0 -58.5 3t-25 5t-14.5 10l-109 80q-26 18 -49 0l-102 -78q-12 -10 -16.5 -12.5t-24 -5t-58.5 -2.5q-84 0 -80 26zM82 33v1360 q0 13 9.5 22.5t23.5 9.5h536q39 0 39 -135q0 -141 -39 -141h-225q-33 0 -33 -33v-209q0 -33 33 -33h121q11 0 18 -7.5t13 -38t6 -85.5q0 -57 -6 -88.5t-13 -39t-18 -7.5h-121q-33 0 -33 -33v-266q0 -33 33 -33h225q39 0 39 -137q0 -139 -39 -139h-536q-13 0 -23 10t-10 23z " />
<glyph unicode="&#xcb;" horiz-adv-x="704" d="M82 33v1360q0 13 9.5 22.5t23.5 9.5h536q39 0 39 -135q0 -141 -39 -141h-225q-33 0 -33 -33v-209q0 -33 33 -33h121q11 0 18 -7.5t13 -38t6 -85.5q0 -57 -6 -88.5t-13 -39t-18 -7.5h-121q-33 0 -33 -33v-266q0 -33 33 -33h225q39 0 39 -137q0 -139 -39 -139h-536 q-13 0 -23 10t-10 23zM84 1657v35q0 59 37 92q33 33 92 33q61 0 94 -33q37 -33 37 -92v-35q0 -59 -37 -92q-33 -33 -94 -33q-59 0 -92 33q-37 33 -37 92zM401 1657v35q0 59 37 92q33 33 92 33q62 0 95 -33q37 -33 37 -92v-35q0 -59 -37 -92q-33 -33 -95 -33q-59 0 -92 33 q-37 33 -37 92z" />
<glyph unicode="&#xcc;" horiz-adv-x="520" d="M76 1776q-17 22 32 32q35 7 105 7q61 0 89.5 -3.5t36.5 -9t11 -18.5l62 -211q1 -5 1.5 -10t-3.5 -9.5t-12 -8t-24 -6t-40 -3.5q-40 -1 -64 4t-30 10t-13 15zM102 29v1372q0 11 8.5 18.5t45.5 14t104 6.5t104 -6.5t45.5 -14t8.5 -18.5v-1372q0 -11 -8.5 -18.5t-45.5 -14 t-104 -6.5t-104 6.5t-45.5 14t-8.5 18.5z" />
<glyph unicode="&#xcd;" horiz-adv-x="520" d="M102 29v1372q0 11 8.5 18.5t45.5 14t104 6.5t104 -6.5t45.5 -14t8.5 -18.5v-1372q0 -11 -8.5 -18.5t-45.5 -14t-104 -6.5t-104 6.5t-45.5 14t-8.5 18.5zM111 1557q-1 8 0 16l61 211q3 13 11 18.5t36.5 9t89.5 3.5q152 0 141 -33l-4 -6l-151 -211q-7 -10 -13 -15t-30 -10 t-64 -4q-38 1 -57 7t-20 14z" />
<glyph unicode="&#xce;" horiz-adv-x="520" d="M-46 1553q2 6 7 12l182 219q11 15 17 19.5t28.5 8t69.5 3.5q49 0 72.5 -3.5t30.5 -8.5t18 -19l182 -219q24 -27 -23 -36q-19 -3 -46 -3q-38 0 -59 3t-25.5 5.5t-14.5 9.5l-108 80q-26 18 -49 0l-103 -78q-1 -1 -4.5 -4t-5 -3.5t-4.5 -3t-5 -3t-6.5 -2t-8.5 -1.5t-10.5 -1 t-14 -1.5t-17.5 -0.5h-22q-85 0 -81 27zM102 29v1372q0 11 8.5 18.5t45.5 14t104 6.5t104 -6.5t45.5 -14t8.5 -18.5v-1372q0 -11 -8.5 -18.5t-45.5 -14t-104 -6.5t-104 6.5t-45.5 14t-8.5 18.5z" />
<glyph unicode="&#xcf;" horiz-adv-x="520" d="M-29 1657v35q0 59 37 92q33 33 92 33q62 0 95 -33q36 -32 36 -92v-35q0 -60 -36 -92q-33 -33 -95 -33q-59 0 -92 33q-37 33 -37 92zM102 29v1372q0 11 8.5 18.5t45.5 14t104 6.5t104 -6.5t45.5 -14t8.5 -18.5v-1372q0 -11 -8.5 -18.5t-45.5 -14t-104 -6.5t-104 6.5 t-45.5 14t-8.5 18.5zM289 1657v35q0 59 37 92q33 33 92 33q61 0 94 -33q37 -33 37 -92v-35q0 -59 -37 -92q-33 -33 -94 -33q-59 0 -92 33q-37 33 -37 92z" />
<glyph unicode="&#xd0;" horiz-adv-x="882" d="M-6 838q0 139 39 139h22q25 0 25 31v385q0 13 9.5 22.5t23.5 9.5h362q136 0 236 -87.5t100 -231.5v-789q0 -17 -2.5 -38.5t-12 -53t-24.5 -61t-43 -60t-64 -53t-91 -37t-121 -14.5h-340q-13 0 -23 10t-10 23v635q0 30 -31 30h-16q-39 0 -39 140zM393 1008q0 -31 31 -31 h18q11 0 18 -7.5t13 -39t6 -88.5q0 -60 -6 -94t-13 -42t-18 -8h-14q-33 0 -33 -30v-359q0 -13 9.5 -23t23.5 -10h35q15 0 29 16t14 38v766q0 23 -14 38t-29 15h-35q-14 0 -23.5 -9.5t-9.5 -23.5z" />
<glyph unicode="&#xd1;" horiz-adv-x="964" d="M82 29v1372q0 39 139 39q59 0 92.5 -7.5t40.5 -14t11 -17.5l167 -539q9 -28 27 -28q19 0 19 32l-11 535q0 11 8.5 18.5t46 14t105.5 6.5q66 0 102.5 -6.5t45 -14t8.5 -18.5v-1372q0 -39 -138 -39q-139 0 -149 47l-164 577q-9 29 -24 29q-7 0 -14 -8.5t-7 -20.5l8 -585 q0 -11 -8.5 -18.5t-47.5 -14t-110 -6.5q-62 0 -96.5 6.5t-42.5 14t-8 18.5zM157.5 1545.5q0.5 7.5 4.5 15.5l121 198q7 12 12.5 16.5t25 7.5t60.5 3q36 0 56.5 -4t24 -6.5t11.5 -10.5l80 -69q14 -9 20.5 -6.5t18.5 14.5l47 45l5 5l4.5 4.5t5 4t7.5 4t9.5 2.5t13.5 2.5 t17.5 1.5t23.5 1q40 1 59 -4t18 -13t-5 -16l-121 -199q-10 -16 -26.5 -21t-69.5 -5q-17 0 -29.5 1t-19.5 2t-13.5 4t-9 4t-7.5 5.5t-7 5.5l-88 64q-19 15 -39 -5l-48 -45q-1 -1 -4 -4.5t-4.5 -4.5t-4.5 -3.5t-6 -3.5t-8 -2.5t-10.5 -2.5t-13.5 -1.5t-18.5 -1t-22.5 -0.5 q-36 0 -53 5t-16.5 12.5z" />
<glyph unicode="&#xd2;" horiz-adv-x="884" d="M72 315v795q0 163 108 254q98 82 262 82q165 0 263 -82q108 -91 108 -254v-795q0 -163 -108 -254q-97 -81 -263 -81q-165 0 -262 81q-108 91 -108 254zM236 1776q-17 22 32 32q35 7 105 7q61 0 89.5 -3.5t36.5 -9t11 -18.5l61 -211q1 -8 0 -16t-20 -14t-57 -7 q-40 -1 -64 4t-30 10t-13 15zM387 350q0 -78 64 -78q63 0 63 78v729q0 78 -63 78q-64 0 -64 -78v-729z" />
<glyph unicode="&#xd3;" horiz-adv-x="884" d="M72 315v795q0 163 108 254q98 82 262 82q165 0 263 -82q108 -91 108 -254v-795q0 -163 -108 -254q-97 -81 -263 -81q-165 0 -262 81q-108 91 -108 254zM309.5 1563q0.5 5 1.5 10l62 211q3 13 11 18.5t36.5 9t89.5 3.5q152 0 141 -33l-4 -6l-151 -211q-7 -10 -13 -15 t-30 -10t-64 -4q-24 1 -40 3.5t-24 6t-12 8t-3.5 9.5zM387 350q0 -78 64 -78q63 0 63 78v729q0 78 -63 78q-64 0 -64 -78v-729z" />
<glyph unicode="&#xd4;" horiz-adv-x="884" d="M72 315v795q0 163 108 254q98 82 262 82q165 0 263 -82q108 -91 108 -254v-795q0 -163 -108 -254q-97 -81 -263 -81q-165 0 -262 81q-108 91 -108 254zM134 1553q2 6 7 12l183 219q15 19 25 23q21 8 89 8q49 0 72.5 -3.5t30.5 -8.5t18 -19l182 -219q24 -27 -23 -36 q-19 -3 -46 -3q-38 0 -59 3t-25.5 5.5t-14.5 9.5l-108 80q-26 18 -49 0l-103 -78q-1 -1 -4.5 -4t-5 -3.5t-4.5 -3t-5 -3t-6.5 -2t-8.5 -1.5t-10.5 -1t-14 -1.5t-17.5 -0.5h-22q-85 0 -81 27zM387 350q0 -78 64 -78q63 0 63 78v729q0 78 -63 78q-64 0 -64 -78v-729z" />
<glyph unicode="&#xd5;" horiz-adv-x="884" d="M72 315v795q0 163 108 254q98 82 262 82q165 0 263 -82q108 -91 108 -254v-795q0 -163 -108 -254q-97 -81 -263 -81q-165 0 -262 81q-108 91 -108 254zM118.5 1545.5q0.5 7.5 4.5 15.5l121 198q7 12 12.5 16.5t25 7.5t60.5 3q36 0 56.5 -4t24 -6.5t11.5 -10.5l80 -69 q14 -9 20.5 -6.5t18.5 14.5l47 45l4 5q5 4 5.5 4.5t5 4t7.5 4t9.5 2.5t13.5 2.5t17.5 1.5t23.5 1q40 1 59 -4t18 -13t-5 -16l-121 -199q-10 -16 -26.5 -21t-69.5 -5q-17 0 -29.5 1t-19.5 2t-13.5 4t-9 4t-7.5 5.5t-7 5.5l-88 64q-19 15 -39 -5l-47 -45q-10 -10 -14 -13 t-23.5 -7t-55.5 -4t-53 5t-16.5 12.5zM387 350q0 -78 64 -78q63 0 63 78v729q0 78 -63 78q-64 0 -64 -78v-729z" />
<glyph unicode="&#xd6;" horiz-adv-x="884" d="M72 315v795q0 163 108 254q98 82 262 82q165 0 263 -82q108 -91 108 -254v-795q0 -163 -108 -254q-97 -81 -263 -81q-165 0 -262 81q-108 91 -108 254zM154 1657v35q0 60 36 92q33 33 93 33q61 0 94 -33q37 -33 37 -92v-35q0 -59 -37 -92q-33 -33 -94 -33q-60 0 -93 33 q-36 32 -36 92zM387 350q0 -78 64 -78q63 0 63 78v729q0 78 -63 78q-64 0 -64 -78v-729zM471 1657v35q0 59 37 92q33 33 92 33q61 0 94 -33q37 -33 37 -92v-35q0 -59 -37 -92q-33 -33 -94 -33q-59 0 -92 33q-37 33 -37 92z" />
<glyph unicode="&#xd7;" d="M143 831q-36 36 39 109q66 64 99 31l110 -111q11 -13 23 -11.5t30 19.5l103 101q37 37 98 -25q62 -65 27 -100l-103 -101q-31 -31 -4 -57l111 -111q34 -33 -35 -102q-71 -71 -104 -37l-109 111q-15 15 -27 14.5t-30 -18.5l-101 -99q-36 -36 -98 25q-64 63 -27 100l101 99 q18 18 18.5 29t-14.5 26z" />
<glyph unicode="&#xd8;" horiz-adv-x="966" d="M73.5 9q-1.5 8 0.5 16l53 116q12 28 2 54q-18 55 -18 120v795q0 163 108 254q98 82 262 82q124 0 201 -47q4 -4 13 0t14 16q5 10 10 14t25.5 7.5t60.5 3.5q43 0 65 -5.5t22.5 -13.5t-1.5 -16l-55 -123q-13 -28 0 -57q16 -40 16 -115v-795q0 -162 -109 -254 q-97 -81 -262 -81q-120 0 -194 47q-1 1 -4 2.5l-5 2.5t-5.5 2t-5.5 1t-4.5 -1.5t-4.5 -4.5q-1 -1 -5 -7.5t-6 -9t-10 -8t-17.5 -8t-26.5 -4.5t-39 -2q-37 0 -58 5.5t-22.5 13.5zM426 350q0 -78 63 -78q64 0 64 78v281q0 13 -4 18.5t-10.5 0.5t-12.5 -19l-86 -193 q-14 -32 -14 -51v-37zM426 825q0 -13 4 -18.5t10.5 -0.5t12.5 19l86 193q14 32 14 61q0 78 -64 78q-63 0 -63 -78v-254z" />
<glyph unicode="&#xd9;" horiz-adv-x="884" d="M72 315v1086q0 11 8 18.5t45 14t104 6.5t104 -6.5t45.5 -14t8.5 -18.5v-1051q0 -78 64 -78q63 0 63 78v1051q0 39 150 39q63 0 98 -6.5t43 -14t8 -18.5v-1086q0 -163 -108 -254q-97 -81 -263 -81q-165 0 -262 81q-108 91 -108 254zM236 1776q-17 22 32 32q35 7 105 7 q61 0 89.5 -3.5t36.5 -9t11 -18.5l61 -211q1 -8 0 -16t-20 -14t-57 -7q-40 -1 -64 4t-30 10t-13 15z" />
<glyph unicode="&#xda;" horiz-adv-x="884" d="M72 315v1086q0 11 8 18.5t45 14t104 6.5t104 -6.5t45.5 -14t8.5 -18.5v-1051q0 -78 64 -78q63 0 63 78v1051q0 39 150 39q63 0 98 -6.5t43 -14t8 -18.5v-1086q0 -163 -108 -254q-97 -81 -263 -81q-165 0 -262 81q-108 91 -108 254zM309.5 1563q0.5 5 1.5 10l62 211 q3 13 11 18.5t36.5 9t89.5 3.5q152 0 141 -33l-4 -6l-151 -211q-7 -10 -13 -15t-30 -10t-64 -4q-24 1 -40 3.5t-24 6t-12 8t-3.5 9.5z" />
<glyph unicode="&#xdb;" horiz-adv-x="884" d="M72 315v1086q0 11 8 18.5t45 14t104 6.5t104 -6.5t45.5 -14t8.5 -18.5v-1051q0 -78 64 -78q63 0 63 78v1051q0 39 150 39q63 0 98 -6.5t43 -14t8 -18.5v-1086q0 -163 -108 -254q-97 -81 -263 -81q-165 0 -262 81q-108 91 -108 254zM134 1553q2 6 7 12l183 219 q15 19 25 23q21 8 89 8q49 0 72.5 -3.5t30.5 -8.5t18 -19l182 -219q24 -27 -23 -36q-19 -3 -46 -3q-38 0 -59 3t-25.5 5.5t-14.5 9.5l-108 80q-26 18 -49 0l-103 -78q-1 -1 -4.5 -4t-5 -3.5t-4.5 -3t-5 -3t-6.5 -2t-8.5 -1.5t-10.5 -1t-14 -1.5t-17.5 -0.5h-22q-85 0 -81 27 z" />
<glyph unicode="&#xdc;" horiz-adv-x="884" d="M72 315v1086q0 11 8 18.5t45 14t104 6.5t104 -6.5t45.5 -14t8.5 -18.5v-1051q0 -78 64 -78q63 0 63 78v1051q0 39 150 39q63 0 98 -6.5t43 -14t8 -18.5v-1086q0 -163 -108 -254q-97 -81 -263 -81q-165 0 -262 81q-108 91 -108 254zM154 1657v35q0 60 36 92q33 33 93 33 q61 0 94 -33q37 -33 37 -92v-35q0 -59 -37 -92q-33 -33 -94 -33q-60 0 -93 33q-36 32 -36 92zM471 1657v35q0 59 37 92q33 33 92 33q61 0 94 -33q37 -33 37 -92v-35q0 -59 -37 -92q-33 -33 -94 -33q-59 0 -92 33q-37 33 -37 92z" />
<glyph unicode="&#xdd;" horiz-adv-x="786" d="M12 1401q-2 11 7 18.5t47 14t106 6.5q67 0 104.5 -6.5t46 -14t9.5 -18.5l49 -490q3 -28 16 -28q14 0 17 28l61 490q1 11 9 18.5t43 14t98 6.5t98.5 -6.5t44 -14t6.5 -18.5l-211 -752q-12 -47 -12 -106l6 -514q0 -11 -8.5 -18.5t-46.5 -14t-107 -6.5t-107 6.5t-46.5 14 t-8.5 18.5l7 512q0 41 -15 100zM260.5 1563q0.5 5 1.5 10l62 211q3 13 11 18.5t36.5 9t89.5 3.5q152 0 141 -33l-4 -6l-152 -211q-7 -10 -13 -15t-29.5 -10t-63.5 -4q-24 1 -40 3.5t-24 6t-12 8t-3.5 9.5z" />
<glyph unicode="&#xde;" horiz-adv-x="858" d="M82 29v1372q0 11 8.5 18.5t46 14t105.5 6.5q66 0 102.5 -6.5t44.5 -14t8 -18.5l-4 -162q0 -41 39 -41h21q66 0 128.5 -21t113 -59t81.5 -98t31 -133v-330q0 -34 -8 -69.5t-33 -80t-64 -78.5t-109 -57.5t-161 -23.5q-39 0 -39 -41l4 -178q0 -11 -8.5 -18.5t-45.5 -14 t-105 -6.5q-66 0 -102.5 6.5t-45 14t-8.5 18.5zM399 535q0 -33 33 -33q39 0 61.5 15t22.5 44v295q0 37 -20.5 51.5t-63.5 14.5q-33 0 -33 -33v-354z" />
<glyph unicode="&#xdf;" horiz-adv-x="897" d="M-6 842q0 139 39 139h22q25 0 25 31v98q0 163 108 254q93 82 236 82h59q136 0 232 -84q49 -41 77.5 -105t28.5 -135v-35q0 -141 -90 -182q-5 -2 -8.5 -5.5t-4.5 -6.5t2.5 -6.5t10.5 -5.5q105 -35 105 -207v-340q0 -30 -1.5 -52.5t-9 -61.5t-21 -68.5t-40.5 -63.5 t-64.5 -56t-96.5 -37t-132 -15q-14 0 -20 4t-10.5 26.5t-4.5 69.5q0 74 4 90.5t25 19.5q33 5 49 28.5t16 76.5v323q0 12 0.5 30.5t0.5 28t-0.5 23.5t-2 21.5t-4.5 17.5t-7.5 14.5t-11 10t-15.5 7.5t-21 3q-20 2 -28.5 18.5t-8.5 73.5q0 58 8.5 75t28.5 20q17 2 34 20.5 t17 54.5v43q0 30 -15 54t-48 24q-62 0 -62 -78v-1046q0 -13 -9.5 -23t-23.5 -10h-249q-13 0 -23 10t-10 23v639q0 30 -31 30h-16q-39 0 -39 140z" />
<glyph unicode="&#xe0;" horiz-adv-x="884" d="M61 305q0 42 15.5 87t47.5 89t92.5 72.5t139.5 28.5q63 0 131 -33q15 -8 24 -2t9 24v78q0 92 -76 92q-34 0 -54.5 -24t-22.5 -55q-1 -7 -2.5 -10.5t-9 -9.5t-21.5 -9t-41 -5.5t-66 -2.5q-69 0 -104 6.5t-42 14.5t-7 24q0 62 26 120.5t72.5 104.5t117.5 74t154 28 q166 0 265 -77q56 -42 85 -107t29 -139v-647q0 -11 -7.5 -18t-38 -13t-85.5 -6q-89 0 -114.5 10t-28.5 35q0 2 -1.5 12.5t-3 16.5t-5.5 6q-3 0 -6.5 -5t-8.5 -13t-8 -11q-49 -57 -147 -61q-151 -3 -238 96q-70 81 -70 229zM236 1323q-17 22 32 32q35 7 105 7q61 0 89.5 -3.5 t36.5 -9t11 -18.5l61 -211q1 -8 0 -16t-20 -14t-57 -7q-40 -1 -64 4t-30 10t-13 15zM367 295q0 -109 73 -109q37 0 58.5 20t21.5 42v88q0 21 -22 39t-58 18q-33 0 -53 -25t-20 -73z" />
<glyph unicode="&#xe1;" horiz-adv-x="884" d="M61 305q0 42 15.5 87t47.5 89t92.5 72.5t139.5 28.5q63 0 131 -33q15 -8 24 -2t9 24v78q0 92 -76 92q-34 0 -54.5 -24t-22.5 -55q-1 -7 -2.5 -10.5t-9 -9.5t-21.5 -9t-41 -5.5t-66 -2.5q-69 0 -104 6.5t-42 14.5t-7 24q0 62 26 120.5t72.5 104.5t117.5 74t154 28 q166 0 265 -77q56 -42 85 -107t29 -139v-647q0 -11 -7.5 -18t-38 -13t-85.5 -6q-89 0 -114.5 10t-28.5 35q0 2 -1.5 12.5t-3 16.5t-5.5 6q-3 0 -6.5 -5t-8.5 -13t-8 -11q-49 -57 -147 -61q-151 -3 -238 96q-70 81 -70 229zM309.5 1110q0.5 5 1.5 10l62 211q3 13 11 18.5 t36.5 9t89.5 3.5q152 0 141 -33l-4 -6l-151 -211q-7 -10 -13 -15t-30 -10t-64 -4q-24 1 -40 3.5t-24 6t-12 8t-3.5 9.5zM367 295q0 -109 73 -109q37 0 58.5 20t21.5 42v88q0 21 -22 39t-58 18q-33 0 -53 -25t-20 -73z" />
<glyph unicode="&#xe2;" horiz-adv-x="884" d="M61 305q0 42 15.5 87t47.5 89t92.5 72.5t139.5 28.5q63 0 131 -33q15 -8 24 -2t9 24v78q0 92 -76 92q-34 0 -54.5 -24t-22.5 -55q-1 -7 -2.5 -10.5t-9 -9.5t-21.5 -9t-41 -5.5t-66 -2.5q-69 0 -104 6.5t-42 14.5t-7 24q0 62 26 120.5t72.5 104.5t117.5 74t154 28 q166 0 265 -77q56 -42 85 -107t29 -139v-647q0 -11 -7.5 -18t-38 -13t-85.5 -6q-89 0 -114.5 10t-28.5 35q0 2 -1.5 12.5t-3 16.5t-5.5 6q-3 0 -6.5 -5t-8.5 -13t-8 -11q-49 -57 -147 -61q-151 -3 -238 96q-70 81 -70 229zM134 1100q2 6 7 12l183 219q15 19 25 23q21 8 89 8 q49 0 72.5 -3.5t30.5 -8.5t18 -19l182 -219q24 -27 -23 -36q-19 -3 -46 -3q-37 0 -58.5 3.5t-25.5 5.5t-15 10l-108 79q-26 18 -49 0l-103 -77q-2 -1 -5.5 -4t-5 -4t-5 -3.5t-6.5 -3t-8 -2t-11 -2t-14.5 -1.5t-19 -1h-23.5q-85 0 -81 27zM367 295q0 -109 73 -109 q37 0 58.5 20t21.5 42v88q0 21 -22 39t-58 18q-33 0 -53 -25t-20 -73z" />
<glyph unicode="&#xe3;" horiz-adv-x="884" d="M61 305q0 42 15.5 87t47.5 89t92.5 72.5t139.5 28.5q63 0 131 -33q15 -8 24 -2t9 24v78q0 92 -76 92q-34 0 -54.5 -24t-22.5 -55q-1 -7 -2.5 -10.5t-9 -9.5t-21.5 -9t-41 -5.5t-66 -2.5q-69 0 -104 6.5t-42 14.5t-7 24q0 62 26 120.5t72.5 104.5t117.5 74t154 28 q166 0 265 -77q56 -42 85 -107t29 -139v-647q0 -11 -7.5 -18t-38 -13t-85.5 -6q-89 0 -114.5 10t-28.5 35q0 2 -1.5 12.5t-3 16.5t-5.5 6q-3 0 -6.5 -5t-8.5 -13t-8 -11q-49 -57 -147 -61q-151 -3 -238 96q-70 81 -70 229zM118.5 1092.5q0.5 7.5 4.5 15.5l121 199 q7 12 12.5 16t25 7t60.5 3q36 0 56.5 -3.5t24 -6t11.5 -10.5l80 -70q14 -9 20.5 -6.5t18.5 14.5l47 45l4 4l5.5 5.5t5 4t7.5 4t9.5 2.5t13.5 2.5t17.5 1.5t23.5 1q40 1 59 -4t18 -13t-5 -16l-121 -198q-10 -16 -26.5 -21.5t-69.5 -5.5q-17 0 -29.5 1t-19.5 2t-13.5 4t-9 4 t-7.5 5.5t-7 5.5l-88 64q-20 15 -39 -4l-47 -45q-16 -16 -27 -19q-20 -6 -66 -6q-36 0 -53 5t-16.5 12.5zM367 295q0 -109 73 -109q37 0 58.5 20t21.5 42v88q0 21 -22 39t-58 18q-33 0 -53 -25t-20 -73z" />
<glyph unicode="&#xe4;" horiz-adv-x="884" d="M61 305q0 42 15.5 87t47.5 89t92.5 72.5t139.5 28.5q63 0 131 -33q15 -8 24 -2t9 24v78q0 92 -76 92q-34 0 -54.5 -24t-22.5 -55q-1 -7 -2.5 -10.5t-9 -9.5t-21.5 -9t-41 -5.5t-66 -2.5q-69 0 -104 6.5t-42 14.5t-7 24q0 62 26 120.5t72.5 104.5t117.5 74t154 28 q166 0 265 -77q56 -42 85 -107t29 -139v-647q0 -11 -7.5 -18t-38 -13t-85.5 -6q-89 0 -114.5 10t-28.5 35q0 2 -1.5 12.5t-3 16.5t-5.5 6q-3 0 -6.5 -5t-8.5 -13t-8 -11q-49 -57 -147 -61q-151 -3 -238 96q-70 81 -70 229zM154 1204v35q0 60 36 92q33 33 93 33q61 0 94 -33 q37 -33 37 -92v-35q0 -59 -37 -92q-33 -33 -94 -33q-60 0 -93 33q-36 32 -36 92zM367 295q0 -109 73 -109q37 0 58.5 20t21.5 42v88q0 21 -22 39t-58 18q-33 0 -53 -25t-20 -73zM471 1204v35q0 59 37 92q33 33 92 33q61 0 94 -33q37 -33 37 -92v-35q0 -59 -37 -92 q-33 -33 -94 -33q-59 0 -92 33q-37 33 -37 92z" />
<glyph unicode="&#xe5;" horiz-adv-x="884" d="M61 305q0 42 15.5 87t47.5 89t92.5 72.5t139.5 28.5q63 0 131 -33q15 -8 24 -2t9 24v78q0 92 -76 92q-34 0 -54.5 -24t-22.5 -55q-1 -7 -2.5 -10.5t-9 -9.5t-21.5 -9t-41 -5.5t-66 -2.5q-69 0 -104 6.5t-42 14.5t-7 24q0 62 26 120.5t72.5 104.5t117.5 74t154 28 q166 0 265 -77q56 -42 85 -107t29 -139v-647q0 -11 -7.5 -18t-38 -13t-85.5 -6q-89 0 -114.5 10t-28.5 35q0 2 -1.5 12.5t-3 16.5t-5.5 6q-3 0 -6.5 -5t-8.5 -13t-8 -11q-49 -57 -147 -61q-151 -3 -238 96q-70 81 -70 229zM215 1219v61q0 73 61 119q27 21 74 33t92 12 t92 -12t74 -33q60 -45 60 -119v-61q0 -72 -60 -117q-27 -21 -74 -33t-92 -12t-92 12t-74 33q-61 46 -61 117zM367 295q0 -109 73 -109q37 0 58.5 20t21.5 42v88q0 21 -22 39t-58 18q-33 0 -53 -25t-20 -73zM369 1223q0 -25 18 -43.5t55 -18.5t54.5 18.5t17.5 43.5v63 q0 24 -17.5 40.5t-54.5 16.5t-55 -16.5t-18 -40.5v-63z" />
<glyph unicode="&#xe6;" horiz-adv-x="1269" d="M61 305q0 42 14.5 87t45.5 89t89 72.5t134 28.5q61 0 125 -33q13 -8 23 -3.5t10 17.5v99q0 32 -18 55.5t-56 23.5q-33 0 -52.5 -23t-21.5 -54q-1 -7 -2 -10.5t-8.5 -9.5t-21 -9.5t-39.5 -6t-64 -3.5q-66 -1 -99.5 5.5t-40.5 15t-7 24.5q0 83 42.5 157t125.5 122t188 48 q99 0 178 -47q25 -17 36 -16.5t38 18.5q71 45 170 45q155 0 246 -82q100 -94 100 -253v-166q0 -32 -10.5 -43t-40.5 -11h-309q-35 0 -35 -32v-66q0 -78 59 -78q57 0 60 68q1 15 7 22.5t38 13t96 5.5q90 0 113.5 -7.5t21.5 -31.5v-21q-3 -163 -100 -254q-90 -81 -246 -81 q-130 0 -207 57q-31 23 -38.5 23t-41.5 -23q-32 -21 -67.5 -34t-56 -16t-51 -5t-32.5 -2q-145 -3 -229 96q-66 79 -66 229zM354 295q0 -113 70 -113q35 0 56.5 20t21.5 42v88q0 21 -22 39t-56 18q-70 0 -70 -94zM797 604q0 -20 8 -26.5t29 -6.5h51q21 0 30 10.5t9 22.5v66 q0 65 -62 65q-33 0 -49 -22.5t-16 -55.5v-53z" />
<glyph unicode="&#xe7;" horiz-adv-x="827" d="M61 317v345q0 160 107 253q94 82 256 82t256 -82q106 -92 106 -253v-27q0 -11 -5.5 -17.5t-39 -13t-96.5 -6.5q-69 0 -103 6.5t-39 13t-5 19.5q0 78 -62 78q-61 0 -61 -78v-291q0 -78 61 -78q62 0 62 78q0 15 6.5 22.5t39.5 13t99 5.5t96 -3.5t38.5 -11t8.5 -24.5v-31 q0 -162 -106 -254q-80 -69 -225 -79q-16 0 -25 -5t-14 -22l-6 -20q-5 -12 -2 -17t9.5 -5t12.5 1q77 22 131 12q79 -13 118.5 -58.5t25.5 -121.5q-16 -89 -91 -127.5t-178 -36.5q-116 0 -192 23q-17 5 -20 19t12 57q13 36 19 43.5t19 5.5q25 -4 34 -5.5t35.5 -5t39 -3.5 t34.5 0.5t34 5t26.5 11.5t22 19.5t10.5 28.5q7 49 -35 57q-26 3 -54 -4t-42 -26q-9 -14 -29 -11l-94 19q-23 5 -12 30l41 121q9 27 -19 38q-1 1 -2 1q-56 18 -96 55q-107 93 -107 254z" />
<glyph unicode="&#xe8;" horiz-adv-x="860" d="M61 315v347q0 160 107 253q94 82 256 82t256 -82q106 -92 106 -253v-166q0 -32 -11.5 -43t-41.5 -11h-323q-35 0 -35 -32v-66q0 -78 61 -78q62 0 62 68q0 15 6.5 22t39 12t99.5 5q96 0 120.5 -6.5t22.5 -30.5v-21q0 -74 -27.5 -141.5t-78.5 -112.5q-87 -81 -256 -81 q-163 0 -256 81q-107 93 -107 254zM223 1323q-17 22 32 32q35 7 105 7q61 0 89.5 -3.5t37 -9t11.5 -18.5l61 -211q1 -5 1.5 -10t-3.5 -9.5t-12 -8t-24 -6t-40 -3.5q-40 -1 -63.5 4t-29.5 10t-13 15zM375 604q0 -20 8 -26.5t29 -6.5h49q37 0 37 33v66q0 65 -60 65 q-63 0 -63 -78v-53z" />
<glyph unicode="&#xe9;" horiz-adv-x="860" d="M61 315v347q0 160 107 253q94 82 256 82t256 -82q106 -92 106 -253v-166q0 -32 -11.5 -43t-41.5 -11h-323q-35 0 -35 -32v-66q0 -78 61 -78q62 0 62 68q0 15 6.5 22t39 12t99.5 5q96 0 120.5 -6.5t22.5 -30.5v-21q0 -74 -27.5 -141.5t-78.5 -112.5q-87 -81 -256 -81 q-163 0 -256 81q-107 93 -107 254zM297.5 1110q0.5 5 1.5 10l61 211q3 13 11.5 18.5t37 9t89.5 3.5q152 0 141 -33l-4 -6l-152 -211q-7 -10 -13 -15t-29.5 -10t-63.5 -4q-24 1 -40 3.5t-24 6t-12 8t-3.5 9.5zM375 604q0 -20 8 -26.5t29 -6.5h49q37 0 37 33v66q0 65 -60 65 q-63 0 -63 -78v-53z" />
<glyph unicode="&#xea;" horiz-adv-x="860" d="M61 315v347q0 160 107 253q94 82 256 82t256 -82q106 -92 106 -253v-166q0 -32 -11.5 -43t-41.5 -11h-323q-35 0 -35 -32v-66q0 -78 61 -78q62 0 62 68q0 15 6.5 22t39 12t99.5 5q96 0 120.5 -6.5t22.5 -30.5v-21q0 -74 -27.5 -141.5t-78.5 -112.5q-87 -81 -256 -81 q-163 0 -256 81q-107 93 -107 254zM122 1100q2 6 7 12l182 219q11 15 17 19.5t28.5 8t69.5 3.5q49 0 72.5 -3.5t30.5 -8.5t18 -19l182 -219q22 -26 -21 -35q-18 -4 -49 -4q-37 0 -58.5 3.5t-25 5.5t-14.5 10l-108 79q-27 18 -50 0l-102 -77q-2 -1 -5.5 -4t-5 -4t-5 -3.5 t-6.5 -3t-8 -2t-11 -2t-14.5 -1.5t-19 -1h-23.5q-85 0 -81 27zM375 604q0 -20 8 -26.5t29 -6.5h49q37 0 37 33v66q0 65 -60 65q-63 0 -63 -78v-53z" />
<glyph unicode="&#xeb;" horiz-adv-x="860" d="M61 315v347q0 160 107 253q94 82 256 82t256 -82q106 -92 106 -253v-166q0 -32 -11.5 -43t-41.5 -11h-323q-35 0 -35 -32v-66q0 -78 61 -78q62 0 62 68q0 15 6.5 22t39 12t99.5 5q96 0 120.5 -6.5t22.5 -30.5v-21q0 -74 -27.5 -141.5t-78.5 -112.5q-87 -81 -256 -81 q-163 0 -256 81q-107 93 -107 254zM141 1204v35q0 59 37 92q33 33 92 33q62 0 95 -33q36 -32 36 -92v-35q0 -60 -36 -92q-33 -33 -95 -33q-59 0 -92 33q-37 33 -37 92zM375 604q0 -20 8 -26.5t29 -6.5h49q37 0 37 33v66q0 65 -60 65q-63 0 -63 -78v-53zM459 1204v35 q0 59 37 92q33 33 92 33q61 0 94 -33q37 -33 37 -92v-35q0 -59 -37 -92q-33 -33 -94 -33q-59 0 -92 33q-37 33 -37 92z" />
<glyph unicode="&#xec;" horiz-adv-x="477" d="M53 1323q-17 22 32 32q35 7 105 7q61 0 89.5 -3.5t37 -9t11.5 -18.5l61 -211q1 -5 1.5 -10t-3.5 -9.5t-12 -8t-24 -6t-40 -3.5q-40 -1 -63.5 4t-29.5 10t-13 15zM82 29v919q0 11 8.5 18.5t45.5 14t104 6.5q66 0 102.5 -6.5t44.5 -14t8 -18.5v-919q0 -11 -8 -18.5 t-44.5 -14t-102.5 -6.5q-67 0 -104 6.5t-45.5 14t-8.5 18.5z" />
<glyph unicode="&#xed;" horiz-adv-x="477" d="M82 29v919q0 11 8.5 18.5t45.5 14t104 6.5q66 0 102.5 -6.5t44.5 -14t8 -18.5v-919q0 -11 -8 -18.5t-44.5 -14t-102.5 -6.5q-67 0 -104 6.5t-45.5 14t-8.5 18.5zM86.5 1110q0.5 5 1.5 10l62 211q3 13 11 18.5t36.5 9t89.5 3.5q152 0 141 -33l-4 -6l-152 -211 q-7 -10 -13 -15t-29.5 -10t-63.5 -4q-24 1 -40 3.5t-24 6t-12 8t-3.5 9.5z" />
<glyph unicode="&#xee;" horiz-adv-x="477" d="M-68 1099q2 7 7 13l182 219q11 15 17 19.5t28.5 8t69.5 3.5q49 0 72.5 -3.5t30 -8.5t17.5 -19l183 -219q22 -26 -21 -35q-18 -4 -49 -4q-37 0 -58.5 3.5t-25 5.5t-14.5 10l-109 79q-26 18 -49 0l-102 -77q-6 -5 -12 -9t-14.5 -6.5t-26 -4t-46.5 -1.5q-84 0 -80 26zM82 29 v919q0 11 8.5 18.5t45.5 14t104 6.5q66 0 102.5 -6.5t44.5 -14t8 -18.5v-919q0 -11 -8 -18.5t-44.5 -14t-102.5 -6.5q-67 0 -104 6.5t-45.5 14t-8.5 18.5z" />
<glyph unicode="&#xef;" horiz-adv-x="477" d="M-49 1204v35q0 59 37 92q33 33 92 33q61 0 94 -33q37 -33 37 -92v-35q0 -59 -37 -92q-33 -33 -94 -33q-59 0 -92 33q-37 33 -37 92zM82 29v919q0 11 8.5 18.5t45.5 14t104 6.5q66 0 102.5 -6.5t44.5 -14t8 -18.5v-919q0 -11 -8 -18.5t-44.5 -14t-102.5 -6.5 q-67 0 -104 6.5t-45.5 14t-8.5 18.5zM268 1204v35q0 59 37 92q33 33 92 33q62 0 95 -33q36 -32 36 -92v-35q0 -60 -36 -92q-33 -33 -95 -33q-59 0 -92 33q-37 33 -37 92z" />
<glyph unicode="&#xf0;" horiz-adv-x="849" d="M61 295v311q0 124 67 197.5t161 73.5q98 0 153 -46q15 -13 26 -6.5t11 25.5q2 68 -8 113q-1 9 -5 15.5t-12.5 5t-19.5 -14.5l-26 -35q-23 -31 -105 31q-90 68 -70 100l11 14q10 19 6 24t-19 7q-19 2 -56 5t-54 5q-21 1 -31 8.5t-16 38t-6 93.5q0 87 8 108t39 21 q175 0 295 -37q39 -13 57 12l29 39q24 28 108 -37q88 -68 66 -94l-15 -19q-4 -6 -6.5 -10.5t-2 -8.5t1 -7t3.5 -6t4 -4.5t5 -4.5l4 -2q124 -96 124 -270v-631q0 -154 -103 -241.5t-255 -87.5q-74 0 -139.5 19.5t-117.5 57t-82 99t-30 139.5zM367 324q0 -68 53 -68t53 68v231 q0 78 -53 78q-24 0 -36.5 -14.5t-14.5 -28.5t-2 -35v-231z" />
<glyph unicode="&#xf1;" horiz-adv-x="874" d="M72 29v919q0 12 7.5 19.5t41.5 13.5t96 6q61 0 91 -4t38 -10.5t8 -20.5v-14q0 -18 13 -18q5 0 18 16q23 27 61 44t74 17h31.5t37.5 -4t47.5 -11.5t45 -24t45.5 -39.5q76 -86 76 -277v-612q0 -11 -8.5 -18.5t-44.5 -14t-101 -6.5q-69 0 -107 6.5t-46.5 14t-8.5 18.5v596 q0 84 -51 84q-49 0 -49 -84v-596q0 -11 -8.5 -18.5t-46.5 -14t-107 -6.5q-65 0 -101 6.5t-44 14t-8 18.5zM112.5 1092.5q0.5 7.5 4.5 15.5l121 199q7 12 12.5 16t25 7t60.5 3q36 0 56.5 -3.5t24 -6t11.5 -10.5l80 -70q14 -9 20.5 -6.5t18.5 14.5l47 45l4 4l5.5 5.5t5 4 t7.5 4t9.5 2.5t13.5 2.5t17.5 1.5t23.5 1q40 1 59 -4t18 -13t-5 -16l-121 -198q-10 -16 -26.5 -21.5t-69.5 -5.5q-17 0 -29.5 1t-19.5 2t-13.5 4t-9 4t-7.5 5.5t-7 5.5l-89 64q-19 15 -38 -4l-48 -45l-5 -6q-5 -5 -6 -5.5t-6.5 -4t-11 -4t-14.5 -2.5t-21 -2.5t-28 -0.5 q-36 0 -53 5t-16.5 12.5z" />
<glyph unicode="&#xf2;" horiz-adv-x="847" d="M61 315v347q0 160 107 253q94 82 256 82t256 -82q106 -92 106 -253v-347q0 -162 -106 -254q-93 -81 -256 -81t-256 81q-107 93 -107 254zM217 1323q-17 22 32 32q35 7 105 7q61 0 89.5 -3.5t37 -9t11.5 -18.5l61 -211q1 -5 1.5 -10t-3.5 -9.5t-12 -8t-24 -6t-40 -3.5 q-40 -1 -63.5 4t-29.5 10t-13 15zM375 350q0 -78 61 -78q62 0 62 78v281q0 78 -64 78q-59 0 -59 -78v-281z" />
<glyph unicode="&#xf3;" horiz-adv-x="847" d="M61 315v347q0 160 107 253q94 82 256 82t256 -82q106 -92 106 -253v-347q0 -162 -106 -254q-93 -81 -256 -81t-256 81q-107 93 -107 254zM291.5 1110q0.5 5 1.5 10l61 211q3 13 11.5 18.5t37 9t89.5 3.5q152 0 141 -33l-4 -6l-152 -211q-7 -10 -13 -15t-29.5 -10 t-63.5 -4q-24 1 -40 3.5t-24 6t-12 8t-3.5 9.5zM375 350q0 -78 61 -78q62 0 62 78v281q0 78 -64 78q-59 0 -59 -78v-281z" />
<glyph unicode="&#xf4;" horiz-adv-x="847" d="M61 315v347q0 160 107 253q94 82 256 82t256 -82q106 -92 106 -253v-347q0 -162 -106 -254q-93 -81 -256 -81t-256 81q-107 93 -107 254zM116 1100q2 6 7 12l182 219q11 15 17 19.5t28.5 8t69.5 3.5q49 0 72.5 -3.5t30.5 -8.5t18 -19l182 -219q22 -26 -21 -35 q-18 -4 -49 -4q-37 0 -58.5 3.5t-25 5.5t-14.5 10l-109 79q-26 18 -49 0l-102 -77q-2 -1 -5.5 -4t-5 -4t-5 -3.5t-6.5 -3t-8 -2t-11 -2t-14.5 -1.5t-19 -1h-23.5q-85 0 -81 27zM375 350q0 -78 61 -78q62 0 62 78v281q0 78 -64 78q-59 0 -59 -78v-281z" />
<glyph unicode="&#xf5;" horiz-adv-x="847" d="M61 315v347q0 160 107 253q94 82 256 82t256 -82q106 -92 106 -253v-347q0 -162 -106 -254q-93 -81 -256 -81t-256 81q-107 93 -107 254zM99.5 1092.5q0.5 7.5 4.5 15.5l121 199q10 17 25 21.5t74 4.5q36 0 56.5 -3.5t24 -6t11.5 -10.5l80 -70q14 -9 20.5 -6.5t18.5 14.5 l47 45l4 4l5.5 5.5t5 4t7.5 4t9.5 2.5t13.5 2.5t17.5 1.5t23.5 1q77 2 76 -19q0 -6 -5 -14l-121 -198q-10 -16 -26.5 -21.5t-69.5 -5.5q-17 0 -29.5 1t-19.5 2t-13.5 4t-9 4t-7.5 5.5t-7 5.5l-88 64q-20 15 -39 -4l-47 -45l-5 -6q-5 -5 -6 -5.5t-6.5 -4t-11 -4t-14.5 -2.5 t-21 -2.5t-28 -0.5q-36 0 -53.5 5t-17 12.5zM375 350q0 -78 61 -78q62 0 62 78v281q0 78 -64 78q-59 0 -59 -78v-281z" />
<glyph unicode="&#xf6;" horiz-adv-x="847" d="M61 315v347q0 160 107 253q94 82 256 82t256 -82q106 -92 106 -253v-347q0 -162 -106 -254q-93 -81 -256 -81t-256 81q-107 93 -107 254zM135 1204v35q0 59 37 92q33 33 92 33q61 0 94 -33q37 -33 37 -92v-35q0 -59 -37 -92q-33 -33 -94 -33q-59 0 -92 33q-37 33 -37 92z M375 350q0 -78 61 -78q62 0 62 78v281q0 78 -64 78q-59 0 -59 -78v-281zM453 1204v35q0 60 36 92q33 33 93 33q61 0 94 -33q37 -33 37 -92v-35q0 -59 -37 -92q-33 -33 -94 -33q-60 0 -93 33q-36 32 -36 92z" />
<glyph unicode="&#xf7;" d="M94 709q0 88 45 88h541q23 0 34 -20t11 -70q0 -51 -11 -70t-34 -19h-541q-22 0 -33.5 19.5t-11.5 71.5zM303 434v31q0 55 33 84q29 29 80 29q55 0 84 -29q32 -28 32 -84v-31q0 -56 -32 -84q-28 -28 -84 -28q-52 0 -80 28q-33 29 -33 84zM303 944v31q0 55 33 84 q28 28 80 28q56 0 84 -28q32 -28 32 -84v-31q0 -56 -32 -84q-29 -29 -84 -29q-51 0 -80 29q-33 29 -33 84z" />
<glyph unicode="&#xf8;" horiz-adv-x="872" d="M62 17q1 5 4 10l43 69q4 7 6.5 13.5t3 10.5t-0.5 8.5t-2 6.5t-3 5.5t-2 4.5q-39 76 -39 170v347q0 161 106 253q94 82 256 82q117 0 195 -41q11 -6 22 5q2 2 4 4.5t3.5 4l3.5 3.5t4.5 3.5t6 3t7.5 2.5t9.5 2t12.5 1.5t15.5 1t19.5 0.5q21 0 36 -2.5t22 -6t10 -8.5t2 -10 t-4 -10l-45 -76q-5 -8 -7 -14t-1 -11t1.5 -8t3.5 -7t3 -5q39 -71 39 -167v-347q0 -161 -107 -254q-93 -81 -256 -81q-110 0 -194 40q-14 7 -25 -8q-4 -7 -8 -10.5t-23 -7.5t-51 -4q-21 0 -35.5 2.5t-22 6t-11 8.5t-2.5 10zM385 543q0 -19 7.5 -21.5t19.5 15.5l75 122 q13 22 0 35q-19 15 -41 15q-61 0 -61 -78v-88zM395 299q8 -11 23 -19t28 -8q62 0 62 78v121q0 14 -7 18t-20 -14l-82 -135q-14 -26 -4 -41z" />
<glyph unicode="&#xf9;" horiz-adv-x="864" d="M61 336v610q0 41 162 41q154 0 154 -41v-594q0 -84 51 -84q49 0 49 84v596q0 11 8.5 18.5t46 14t105.5 6.5q66 0 102.5 -6.5t45 -14t8.5 -18.5v-919q0 -12 -8 -19.5t-42.5 -13.5t-97.5 -6q-60 0 -89.5 4t-37.5 10.5t-8 20.5v14q0 20 -10 20q-7 0 -21 -18q-23 -27 -61 -44 t-74 -17h-31.5t-37.5 4t-47.5 11.5t-45 24t-45.5 39.5q-76 86 -76 277zM225 1323q-17 22 32 32q35 7 105 7q61 0 89.5 -3.5t37 -9t11.5 -18.5l61 -211q1 -5 1.5 -10t-3.5 -9.5t-12 -8t-24 -6t-40 -3.5q-40 -1 -63.5 4t-29.5 10t-13 15z" />
<glyph unicode="&#xfa;" horiz-adv-x="864" d="M61 336v610q0 41 162 41q154 0 154 -41v-594q0 -84 51 -84q49 0 49 84v596q0 11 8.5 18.5t46 14t105.5 6.5q66 0 102.5 -6.5t45 -14t8.5 -18.5v-919q0 -12 -8 -19.5t-42.5 -13.5t-97.5 -6q-60 0 -89.5 4t-37.5 10.5t-8 20.5v14q0 20 -10 20q-7 0 -21 -18q-23 -27 -61 -44 t-74 -17h-31.5t-37.5 4t-47.5 11.5t-45 24t-45.5 39.5q-76 86 -76 277zM299.5 1110q0.5 5 1.5 10l61 211q3 13 11.5 18.5t37 9t89.5 3.5q152 0 141 -33l-4 -6l-152 -211q-7 -10 -13 -15t-29.5 -10t-63.5 -4q-24 1 -40 3.5t-24 6t-12 8t-3.5 9.5z" />
<glyph unicode="&#xfb;" horiz-adv-x="864" d="M61 336v610q0 41 162 41q154 0 154 -41v-594q0 -84 51 -84q49 0 49 84v596q0 11 8.5 18.5t46 14t105.5 6.5q66 0 102.5 -6.5t45 -14t8.5 -18.5v-919q0 -12 -8 -19.5t-42.5 -13.5t-97.5 -6q-60 0 -89.5 4t-37.5 10.5t-8 20.5v14q0 20 -10 20q-7 0 -21 -18q-23 -27 -61 -44 t-74 -17h-31.5t-37.5 4t-47.5 11.5t-45 24t-45.5 39.5q-76 86 -76 277zM124 1100q2 6 7 12l182 219q11 15 17 19.5t28.5 8t69.5 3.5q49 0 72.5 -3.5t30.5 -8.5t18 -19l182 -219q24 -27 -23 -36q-19 -3 -46 -3q-37 0 -58.5 3.5t-25.5 5.5t-15 10l-108 79q-26 18 -49 0 l-103 -77q-2 -1 -5.5 -4t-5 -4t-5 -3.5t-6.5 -3t-8 -2t-11 -2t-14.5 -1.5t-19 -1h-23.5q-85 0 -81 27z" />
<glyph unicode="&#xfc;" horiz-adv-x="864" d="M61 336v610q0 41 162 41q154 0 154 -41v-594q0 -84 51 -84q49 0 49 84v596q0 11 8.5 18.5t46 14t105.5 6.5q66 0 102.5 -6.5t45 -14t8.5 -18.5v-919q0 -12 -8 -19.5t-42.5 -13.5t-97.5 -6q-60 0 -89.5 4t-37.5 10.5t-8 20.5v14q0 20 -10 20q-7 0 -21 -18q-23 -27 -61 -44 t-74 -17h-31.5t-37.5 4t-47.5 11.5t-45 24t-45.5 39.5q-76 86 -76 277zM143 1204v35q0 59 37 92q33 33 92 33q62 0 95 -33q36 -32 36 -92v-35q0 -60 -36 -92q-33 -33 -95 -33q-59 0 -92 33q-37 33 -37 92zM461 1204v35q0 59 37 92q33 33 92 33q61 0 94 -33q37 -33 37 -92 v-35q0 -59 -37 -92q-33 -33 -94 -33q-59 0 -92 33q-37 33 -37 92z" />
<glyph unicode="&#xfd;" horiz-adv-x="763" d="M23 952q-1 9 4 15t43 13t110 7q63 0 96.5 -7t38.5 -13t7 -15l45 -518q5 -28 16 -28t16 28l62 518q1 5 2.5 8.5t10.5 9t23.5 9t44 6t70.5 2.5q66 0 100 -7t38.5 -13.5t1.5 -14.5l-234 -915l-94 -420q-2 -11 -9.5 -17t-40 -11t-93.5 -5q-67 0 -102 7t-40.5 14.5t-1.5 17.5 l125 342q4 12 2 19.5t-5 10.5t-7 3q-18 0 -25 22zM250.5 1110q0.5 5 1.5 10l61 211q3 13 11.5 18.5t37 9t89.5 3.5q152 0 141 -33l-4 -6l-152 -211q-7 -10 -13 -15t-29.5 -10t-63.5 -4q-24 1 -40 3.5t-24 6t-12 8t-3.5 9.5z" />
<glyph unicode="&#xfe;" horiz-adv-x="864" d="M72 -377v1778q0 11 8 18.5t43 14t98 6.5q146 0 146 -39l-5 -449q0 -34 15 -34q6 0 20 18q47 61 146 61q55 0 104.5 -21t81.5 -58q74 -83 74 -277v-305q0 -191 -76 -277q-32 -36 -83.5 -57.5t-106.5 -21.5q-102 0 -154 61q-2 2 -4.5 6t-4.5 6.5l-4 5t-4 3.5t-4 1 q-12 0 -12 -26l-2 -412q0 -14 -8 -22t-40.5 -13.5t-94.5 -5.5q-133 0 -133 39zM383 356q0 -44 11 -64t42 -20q51 0 51 84v271q0 82 -53 82q-51 0 -51 -86v-267z" />
<glyph unicode="&#xff;" horiz-adv-x="763" d="M23 952q-1 9 4 15t43 13t110 7q63 0 96.5 -7t38.5 -13t7 -15l45 -518q5 -28 16 -28t16 28l62 518q1 5 2.5 8.5t10.5 9t23.5 9t44 6t70.5 2.5q66 0 100 -7t38.5 -13.5t1.5 -14.5l-234 -915l-94 -420q-2 -11 -9.5 -17t-40 -11t-93.5 -5q-67 0 -102 7t-40.5 14.5t-1.5 17.5 l125 342q4 12 2 19.5t-5 10.5t-7 3q-18 0 -25 22zM94 1204v35q0 59 37 92q33 33 92 33q61 0 94 -33q37 -33 37 -92v-35q0 -59 -37 -92q-33 -33 -94 -33q-59 0 -92 33q-37 33 -37 92zM412 1204v35q0 59 37 92q33 33 92 33q61 0 94 -33q37 -33 37 -92v-35q0 -59 -37 -92 q-33 -33 -94 -33q-59 0 -92 33q-37 33 -37 92z" />
<glyph unicode="&#x152;" horiz-adv-x="1101" d="M72 295v831q0 75 30 146.5t93.5 122.5t144.5 51q102 0 170 -57q19 -19 27 -19q10 0 16 23q4 19 11.5 25.5t21.5 6.5h463q11 0 18.5 -7.5t13.5 -40.5t6 -91q0 -57 -6 -89.5t-13.5 -40t-18.5 -7.5h-226q-32 0 -32 -33v-209q0 -33 32 -33h121q11 0 18 -7.5t13 -37.5t6 -84 q0 -58 -6 -90t-13 -39.5t-18 -7.5h-121q-32 0 -32 -26v-273q0 -33 32 -33h226q40 0 38 -139q-1 -58 -7 -90t-13 -39.5t-18 -7.5h-469q-28 0 -33 35q-3 20 -15 20q-7 0 -28 -16q-71 -62 -164 -59q-118 4 -193 96t-75 219zM383 354q0 -78 63 -78q31 0 45.5 24.5t14.5 61.5v701 q0 37 -14.5 63.5t-45.5 26.5q-63 0 -63 -78v-721z" />
<glyph unicode="&#x153;" horiz-adv-x="1251" d="M61 315v347q0 157 103 253q91 82 246 82q95 0 172 -47q6 -4 15 -11q17 -12 22.5 -11t28.5 17q3 2 5 3q76 49 176 49q155 0 246 -82q103 -96 103 -253v-166q0 -31 -11.5 -42.5t-40.5 -11.5h-311q-33 0 -33 -32v-66q0 -78 60 -78q54 0 57 68q1 15 7 22t37 12t95 5 q94 0 118 -6.5t22 -30.5v-21q0 -77 -27.5 -143t-75.5 -111q-90 -81 -246 -81q-102 0 -178 49q-7 6 -12 9t-8.5 6.5t-7.5 3.5t-6 0.5t-7 -2l-7 -3.5t-9.5 -6t-11.5 -8q-81 -49 -172 -49q-156 0 -246 81q-48 45 -75.5 111t-27.5 143zM362 350q0 -78 60 -78q59 0 59 78v281 q0 78 -59 78q-60 0 -60 -78v-281zM776 604q0 -20 7.5 -26.5t27.5 -6.5h57q35 0 35 33v66q0 65 -61 65q-33 0 -49.5 -23t-16.5 -55v-53z" />
<glyph unicode="&#x178;" horiz-adv-x="786" d="M12 1401q-2 11 7 18.5t47 14t106 6.5q67 0 104.5 -6.5t46 -14t9.5 -18.5l49 -490q3 -28 16 -28q14 0 17 28l61 490q1 11 9 18.5t43 14t98 6.5t98.5 -6.5t44 -14t6.5 -18.5l-211 -752q-12 -47 -12 -106l6 -514q0 -11 -8.5 -18.5t-46.5 -14t-107 -6.5t-107 6.5t-46.5 14 t-8.5 18.5l7 512q0 41 -15 100zM104 1657v35q0 59 37 92q33 33 92 33q62 0 95 -33q37 -33 37 -92v-35q0 -59 -37 -92q-33 -33 -95 -33q-59 0 -92 33q-37 33 -37 92zM422 1657v35q0 59 37 92q33 33 92 33q61 0 94 -33q37 -33 37 -92v-35q0 -59 -37 -92q-33 -33 -94 -33 q-59 0 -92 33q-37 33 -37 92z" />
<glyph unicode="&#x2c6;" horiz-adv-x="825" d="M106 1099q2 7 7 13l182 219q11 15 17 19.5t28.5 8t69.5 3.5q49 0 72.5 -3.5t30 -8.5t17.5 -19l183 -219q22 -26 -21 -35q-18 -4 -49 -4q-37 0 -58.5 3.5t-25 5.5t-14.5 10l-109 79q-26 18 -49 0l-102 -77q-1 -1 -4.5 -4t-5 -4l-4.5 -3t-5.5 -2.5t-7 -2t-8.5 -2 t-10.5 -1.5t-14 -1t-17.5 -0.5t-22 -0.5q-84 0 -80 26z" />
<glyph unicode="&#x2dc;" horiz-adv-x="856" d="M106.5 1092.5q0.5 7.5 4.5 15.5l120 199q10 17 25 21.5t74 4.5q36 0 56.5 -3.5t24 -6t11.5 -10.5l80 -70q14 -9 20.5 -6.5t18.5 14.5l47 45l4 4l5.5 5.5t5 4t7.5 4t9.5 2.5t13.5 2.5t17.5 1.5t23.5 1q77 2 76 -19q0 -6 -5 -14l-120 -198q-10 -16 -27 -21.5t-70 -5.5 q-17 0 -29.5 1t-19.5 2t-13.5 4t-9 4t-7.5 5.5t-7 5.5l-88 64q-20 15 -39 -4l-47 -45l-5 -6q-5 -5 -6 -5.5t-6.5 -4t-11 -4t-14.5 -2.5t-21 -2.5t-28 -0.5q-36 0 -53 5t-16.5 12.5z" />
<glyph unicode="&#x2000;" horiz-adv-x="948" />
<glyph unicode="&#x2001;" horiz-adv-x="1896" />
<glyph unicode="&#x2002;" horiz-adv-x="948" />
<glyph unicode="&#x2003;" horiz-adv-x="1896" />
<glyph unicode="&#x2004;" horiz-adv-x="632" />
<glyph unicode="&#x2005;" horiz-adv-x="474" />
<glyph unicode="&#x2006;" horiz-adv-x="316" />
<glyph unicode="&#x2007;" horiz-adv-x="316" />
<glyph unicode="&#x2008;" horiz-adv-x="237" />
<glyph unicode="&#x2009;" horiz-adv-x="379" />
<glyph unicode="&#x200a;" horiz-adv-x="105" />
<glyph unicode="&#x2010;" horiz-adv-x="698" d="M37 627q0 74 15 101.5t46 27.5h502q62 0 62 -133q0 -134 -62 -134h-502q-61 0 -61 138z" />
<glyph unicode="&#x2011;" horiz-adv-x="698" d="M37 627q0 74 15 101.5t46 27.5h502q62 0 62 -133q0 -134 -62 -134h-502q-61 0 -61 138z" />
<glyph unicode="&#x2012;" horiz-adv-x="698" d="M37 627q0 74 15 101.5t46 27.5h502q62 0 62 -133q0 -134 -62 -134h-502q-61 0 -61 138z" />
<glyph unicode="&#x2013;" horiz-adv-x="1075" d="M37 629q0 74 12.5 100.5t42.5 26.5h891q28 0 42 -28.5t13 -104.5q-1 -75 -14.5 -103t-40.5 -28h-891q-27 0 -41 29t-14 108z" />
<glyph unicode="&#x2014;" horiz-adv-x="1673" d="M37 629q0 74 12.5 100.5t42.5 26.5h1491q27 0 40.5 -28.5t12.5 -104.5q-1 -73 -14 -100t-39 -27h-1491q-27 0 -41 28t-14 105z" />
<glyph unicode="&#x2018;" horiz-adv-x="385" d="M31 1145q0 41 7.5 79.5t28 81t52.5 75.5t86.5 58.5t124.5 33.5q17 1 20.5 -9.5t3.5 -52.5q0 -26 -3.5 -38.5t-7.5 -15t-13 -3.5q-40 -5 -79 -30t-61 -60q-8 -14 -2 -20t23 1q12 4 29 4q51 0 85.5 -37.5t34.5 -119.5q0 -91 -45 -140q-46 -49 -114 -49q-69 0 -115 49 q-55 55 -55 193z" />
<glyph unicode="&#x2019;" horiz-adv-x="385" d="M25 1278q0 90 45 139q46 49 114 49q69 0 115 -49q55 -55 55 -192q0 -41 -7.5 -79.5t-28 -81t-52.5 -75.5t-86.5 -58.5t-124.5 -33.5q-17 -1 -20.5 9t-3.5 52q0 26 3.5 39t7.5 15.5t13 3.5q40 5 79 30t61 60q8 14 2 19.5t-23 -1.5q-12 -4 -29 -4q-51 0 -85.5 38t-34.5 120 z" />
<glyph unicode="&#x201a;" horiz-adv-x="385" d="M25 137q0 90 45 139q47 50 114 50q68 0 115 -50q55 -55 55 -192q0 -41 -7.5 -79.5t-28 -81t-52.5 -75.5t-86.5 -58.5t-124.5 -33.5q-17 -1 -20.5 9t-3.5 49q0 28 3.5 41.5t7.5 16t13 3.5q40 5 79 30t61 60q8 14 2 20t-23 -1q-12 -4 -29 -4q-51 0 -85.5 37.5t-34.5 119.5z " />
<glyph unicode="&#x201c;" horiz-adv-x="759" d="M31 1145q0 41 7.5 79.5t28 81t52.5 75.5t86.5 58.5t124.5 33.5q17 1 20.5 -9.5t3.5 -52.5q0 -26 -3.5 -38.5t-7.5 -15t-13 -3.5q-40 -5 -79 -30t-61 -60q-8 -14 -2 -20t23 1q12 4 29 4q51 0 85.5 -37.5t34.5 -119.5q0 -91 -45 -140q-46 -49 -114 -49q-69 0 -115 49 q-55 55 -55 193zM406 1145q0 41 7.5 79.5t28 81t52.5 75.5t86.5 58.5t124.5 33.5q17 1 20.5 -9.5t3.5 -52.5q0 -26 -3.5 -38.5t-7.5 -15t-13 -3.5q-40 -5 -79 -30t-61 -60q-8 -14 -2 -20t23 1q12 4 28 4q52 0 86.5 -38t34.5 -119q0 -91 -45 -140q-46 -49 -115 -49 q-68 0 -114 49q-55 55 -55 193z" />
<glyph unicode="&#x201d;" horiz-adv-x="759" d="M25 1278q0 90 45 139q46 49 114 49q69 0 115 -49q55 -55 55 -192q0 -41 -7.5 -79.5t-28 -81t-52.5 -75.5t-86.5 -58.5t-124.5 -33.5q-17 -1 -20.5 9t-3.5 52q0 26 3.5 39t7.5 15.5t13 3.5q40 5 79 30t61 60q8 14 2 19.5t-23 -1.5q-12 -4 -29 -4q-51 0 -85.5 38t-34.5 120 zM399 1278q0 90 45 139q46 49 115 49t115 -49q55 -55 55 -192q0 -41 -7.5 -79.5t-28 -81t-52.5 -75.5t-86.5 -58.5t-124.5 -33.5q-17 -1 -20.5 9t-3.5 52q0 26 3.5 39t7.5 15.5t13 3.5q40 4 78.5 29.5t60.5 60.5q8 14 2.5 19.5t-22.5 -1.5q-12 -4 -29 -4q-51 0 -86 38 t-35 120z" />
<glyph unicode="&#x201e;" horiz-adv-x="759" d="M25 137q0 90 45 139q47 50 114 50q68 0 115 -50q55 -55 55 -192q0 -41 -7.5 -79.5t-28 -81t-52.5 -75.5t-86.5 -58.5t-124.5 -33.5q-17 -1 -20.5 9t-3.5 49q0 28 3.5 41.5t7.5 16t13 3.5q40 5 79 30t61 60q8 14 2 20t-23 -1q-12 -4 -29 -4q-51 0 -85.5 37.5t-34.5 119.5z M399 137q0 90 45 139q47 50 115 50t115 -50q55 -55 55 -192q0 -41 -7.5 -79.5t-28 -81t-52.5 -75.5t-86.5 -58.5t-124.5 -33.5q-17 -1 -20.5 9t-3.5 49q0 28 3.5 41.5t7.5 16t13 3.5q40 4 78.5 29.5t60.5 60.5q8 14 2.5 20t-22.5 -1q-12 -4 -29 -4q-52 0 -86.5 38t-34.5 119 z" />
<glyph unicode="&#x2022;" horiz-adv-x="669" d="M20 621v77q0 58 23 110t57 81q72 63 191 63q124 0 196 -63q34 -29 57 -81t23 -110v-77q0 -112 -80 -181q-72 -63 -196 -63q-119 0 -191 63q-80 69 -80 181z" />
<glyph unicode="&#x2026;" horiz-adv-x="1525" d="M31 158q0 90 45 135q44 41 112 41q71 0 115 -41q45 -45 45 -137q0 -91 -45 -136q-43 -40 -115 -40q-69 0 -112 40q-45 45 -45 138zM604 158q0 90 45 135q44 41 113 41q71 0 115 -41q45 -45 45 -137q0 -91 -45 -136q-43 -40 -115 -40q-70 0 -113 40q-45 45 -45 138z M1178 158q0 90 45 135q44 41 112 41q71 0 115 -41q45 -45 45 -137q0 -91 -45 -136q-43 -40 -115 -40q-69 0 -112 40q-45 45 -45 138z" />
<glyph unicode="&#x202f;" horiz-adv-x="379" />
<glyph unicode="&#x2039;" horiz-adv-x="483" d="M49 623q-15 27 0 61l144 287q7 14 14.5 21t31 12.5t66.5 5.5q39 0 59.5 -5.5t23 -14.5t-0.5 -19l-100 -285q-12 -30 0 -65l100 -285q3 -10 0.5 -19t-23 -14.5t-59.5 -5.5q-43 0 -66.5 5.5t-31 12.5t-14.5 21z" />
<glyph unicode="&#x203a;" horiz-adv-x="483" d="M95.5 317q-2.5 9 0.5 19l101 285q11 31 0 65l-101 285q-3 10 -0.5 19t23 14.5t59.5 5.5q43 0 67 -5.5t31.5 -12.5t14.5 -21l143 -287q15 -34 0 -61l-143 -287q-7 -14 -14.5 -21t-31.5 -12.5t-67 -5.5q-39 0 -59.5 5.5t-23 14.5z" />
<glyph unicode="&#x205f;" horiz-adv-x="474" />
<glyph unicode="&#x20ac;" horiz-adv-x="864" d="M-4 588q0 92 37 92h47q12 0 17.5 3.5t6 8.5t0.5 19v14v16t-2.5 9.5t-7.5 6.5t-14 1h-47q-37 0 -37 86q0 88 37 88h47q24 0 24 31v147q0 162 109 254q98 82 262 82q150 0 248 -82q100 -84 100 -254v-53q0 -38 -135 -49q-66 -7 -99 -2.5t-41.5 11t-8.5 17.5v45q0 78 -60 78 q-59 0 -59 -78v-116v-6.5v-6.5t0.5 -5t1.5 -5t2.5 -3.5t4 -3t6.5 -1t9 -0.5h150q37 0 37 -88q0 -86 -37 -86h-150q-24 0 -24 -23v-30q0 -16 5.5 -20.5t18.5 -4.5h150q37 0 37 -92q0 -82 -37 -82h-150q-12 0 -17.5 -6t-6 -11t-0.5 -18v-121q0 -78 59 -78q60 0 60 78v45 q0 42 145 29q58 -5 91 -13.5t40.5 -16.5t7.5 -19v-60q0 -171 -98 -254q-97 -81 -250 -81q-165 0 -262 81q-109 92 -109 254v160q0 18 -4.5 24.5t-19.5 6.5h-47q-37 0 -37 82z" />
<glyph unicode="&#x2122;" horiz-adv-x="757" d="M0 1393v32q0 8 7 14.5t16 6.5h239q9 0 15 -6.5t6 -14.5v-32q0 -8 -6 -13.5t-15 -5.5h-47q-9 0 -15.5 -6t-6.5 -14v-389q0 -8 -7 -14.5t-16 -6.5h-51q-9 0 -15 6.5t-6 14.5v389q0 8 -5.5 14t-14.5 6h-55q-9 0 -16 6t-7 13zM336 965v460q0 8 5.5 14.5t14.5 6.5h37 q17 0 25 -21l80 -176q14 -32 26 -32q10 0 23 32l78 176q8 21 20 21h39q9 0 16 -6.5t7 -14.5v-460q0 -8 -7 -14.5t-16 -6.5h-55q-9 0 -15 6.5t-6 14.5l2 211q0 18 -12 18q-6 0 -12 -18l-43 -127q-7 -25 -25 -25q-11 0 -20 27l-43 125q-6 16 -13 16q-4 0 -8 -4.5t-4 -11.5 l2 -211q0 -21 -18 -21h-58q-9 0 -14.5 6.5t-5.5 14.5z" />
<glyph unicode="&#x25fc;" horiz-adv-x="983" d="M0 0v983h983v-983h-983z" />
</font>
</defs>
</svg>
